<?xml version="1.0" encoding="utf-8"?>
<!-- Generator: Adobe Illustrator 25.1.0, SVG Export Plug-In . SVG Version: 6.00 Build 0)  -->
<svg version="1.1" id="Layer_1" xmlns="http://www.w3.org/2000/svg" xmlns:xlink="http://www.w3.org/1999/xlink" x="0px" y="0px"
	 width="1893.8px" height="876.7px" viewBox="0 0 1893.8 876.7" enable-background="new 0 0 1893.8 876.7" xml:space="preserve">
<g>
	<g>
		<g>
			
				<line fill="none" stroke="#BDBDBD" stroke-width="0.9913" stroke-miterlimit="10" x1="1777.3" y1="458.6" x2="1776.8" y2="458.6"/>
			
				<line fill="none" stroke="#BDBDBD" stroke-width="0.9913" stroke-miterlimit="10" stroke-dasharray="0.9913,0.9913" x1="1775.8" y1="458.6" x2="212" y2="458.6"/>
			<line fill="none" stroke="#BDBDBD" stroke-width="0.9913" stroke-miterlimit="10" x1="211.5" y1="458.6" x2="211" y2="458.6"/>
		</g>
	</g>
	<g>
		<g>
			
				<line fill="none" stroke="#BDBDBD" stroke-width="0.9913" stroke-miterlimit="10" x1="1777.3" y1="356.7" x2="1776.8" y2="356.7"/>
			
				<line fill="none" stroke="#BDBDBD" stroke-width="0.9913" stroke-miterlimit="10" stroke-dasharray="0.9913,0.9913" x1="1775.8" y1="356.7" x2="212" y2="356.7"/>
			<line fill="none" stroke="#BDBDBD" stroke-width="0.9913" stroke-miterlimit="10" x1="211.5" y1="356.7" x2="211" y2="356.7"/>
		</g>
	</g>
	<g>
		<g>
			
				<line fill="none" stroke="#BDBDBD" stroke-width="0.9913" stroke-miterlimit="10" x1="1777.3" y1="214.7" x2="1776.8" y2="214.7"/>
			
				<line fill="none" stroke="#BDBDBD" stroke-width="0.9913" stroke-miterlimit="10" stroke-dasharray="0.9913,0.9913" x1="1775.8" y1="214.7" x2="212" y2="214.7"/>
			<line fill="none" stroke="#BDBDBD" stroke-width="0.9913" stroke-miterlimit="10" x1="211.5" y1="214.7" x2="211" y2="214.7"/>
		</g>
	</g>
	<g>
		<g>
			
				<line fill="none" stroke="#BDBDBD" stroke-width="0.9913" stroke-miterlimit="10" x1="1777.3" y1="663.4" x2="1776.8" y2="663.4"/>
			
				<line fill="none" stroke="#BDBDBD" stroke-width="0.9913" stroke-miterlimit="10" stroke-dasharray="0.9913,0.9913" x1="1775.8" y1="663.4" x2="212" y2="663.4"/>
			<line fill="none" stroke="#BDBDBD" stroke-width="0.9913" stroke-miterlimit="10" x1="211.5" y1="663.4" x2="211" y2="663.4"/>
		</g>
	</g>
</g>
<desc>Created with Sketch.</desc>
<g id="Group-4" transform="translate(104.000000, 118.000000)">
	<rect id="Rectangle" x="143.5" y="281.2" fill-rule="evenodd" clip-rule="evenodd" fill="#4F4F4F" width="263" height="300.2"/>
	
		<rect id="Rectangle-Copy-3" x="143.5" y="97.2" fill-rule="evenodd" clip-rule="evenodd" fill="#828282" width="263" height="184"/>
	<g enable-background="new    ">
		<path fill="#FFFFF2" d="M224.8,390.8h-3.5v-3.3h3.5v-2.9c0-3.8,2.5-5.8,5.8-5.8c1.2,0,2.1,0.2,2.8,0.4v3.3c-0.5-0.2-1.3-0.3-2-0.3
			c-1.9,0-2.9,0.8-2.9,2.9v2.4h4.9v3.3h-4.9v13.7h-3.7V390.8z"/>
		<path fill="#FFFFF2" d="M243.6,404.8c-5,0-8.9-3.9-8.9-8.8s3.9-8.8,8.9-8.8c5,0,8.9,3.9,8.9,8.8S248.7,404.8,243.6,404.8z
			 M243.6,401.4c3,0,5.1-2.3,5.1-5.4s-2.1-5.4-5.1-5.4c-3,0-5.1,2.3-5.1,5.4S240.6,401.4,243.6,401.4z"/>
		<path fill="#FFFFF2" d="M256.3,387.5h3.7v3c0.6-1.9,2.5-3.2,4.5-3.2c0.5,0,1,0,1.5,0.1v3.8c-0.6-0.2-1.2-0.3-1.9-0.3
			c-2.1,0-4.1,1.8-4.1,5.2v8.3h-3.7V387.5z"/>
		<path fill="#FFFFF2" d="M283.4,387.2c2.4,0,4.5,1.3,5.4,2.6v-2.3h3.7v17h-3.7v-2.3c-1,1.4-3,2.6-5.4,2.6c-4.7,0-8.2-4-8.2-8.8
			S278.7,387.2,283.4,387.2z M284.1,390.6c-3,0-5.1,2.4-5.1,5.4s2,5.4,5.1,5.4c3,0,5.1-2.4,5.1-5.4S287.1,390.6,284.1,390.6z"/>
		<path fill="#FFFFF2" d="M297.6,387.5h3.7v2.3c1-1.7,3-2.7,5.2-2.7c3.9,0,6.5,2.8,6.5,7.1v10.2h-3.7v-9.6c0-2.7-1.4-4.3-3.5-4.3
			c-2.5,0-4.4,1.9-4.4,5.6v8.4h-3.7V387.5z"/>
		<path fill="#FFFFF2" d="M214.5,428c2.4,0,4.5,1.3,5.4,2.6v-2.3h3.7v17H220V443c-1,1.4-3,2.6-5.4,2.6c-4.7,0-8.2-4-8.2-8.8
			S209.9,428,214.5,428z M215.2,431.4c-3,0-5.1,2.4-5.1,5.4s2,5.4,5.1,5.4s5.1-2.4,5.1-5.4S218.2,431.4,215.2,431.4z"/>
		<path fill="#FFFFF2" d="M226.4,428.3h4.1l5.2,11.9l5.2-11.9h4.2l-7.7,17h-3.3L226.4,428.3z"/>
		<path fill="#FFFFF2" d="M255,428c4.5,0,8.2,3,8.2,8.4c0,0.4,0,0.7,0,1.2h-13.4c0.2,2.8,2.4,4.6,5.2,4.6c2.4,0,4-1.1,4.9-2.6l2.9,2
			c-1.5,2.4-4.2,3.9-7.8,3.9c-5.2,0-8.9-3.7-8.9-8.8C246.1,431.8,249.8,428,255,428z M249.9,434.9h9.5c-0.4-2.4-2.4-3.8-4.6-3.8
			S250.4,432.4,249.9,434.9z"/>
		<path fill="#FFFFF2" d="M267,428.3h3.7v3c0.6-1.9,2.5-3.2,4.5-3.2c0.5,0,1,0,1.5,0.1v3.8c-0.6-0.2-1.2-0.3-1.9-0.3
			c-2.1,0-4.1,1.8-4.1,5.2v8.3H267V428.3z"/>
		<path fill="#FFFFF2" d="M286.3,428c2.4,0,4.5,1.3,5.4,2.6v-2.3h3.7v17h-3.7V443c-1,1.4-3,2.6-5.4,2.6c-4.7,0-8.2-4-8.2-8.8
			S281.7,428,286.3,428z M287,431.4c-3,0-5.1,2.4-5.1,5.4s2,5.4,5.1,5.4s5.1-2.4,5.1-5.4S290,431.4,287,431.4z"/>
		<path fill="#FFFFF2" d="M307.9,452.7c-3.3,0-6.3-1.3-8-3.1l2.3-2.7c1.4,1.6,3.4,2.5,5.6,2.5c2.8,0,5.1-1.9,5.1-5.3v-1.6
			c-1,1.5-3.1,2.7-5.4,2.7c-4.6,0-8.2-3.8-8.2-8.6c0-4.8,3.6-8.6,8.2-8.6c2.3,0,4.4,1.1,5.4,2.6v-2.3h3.7v15.8
			C316.7,450.1,312.9,452.7,307.9,452.7z M308.2,441.8c2.9,0,5.1-2.2,5.1-5.2s-2.2-5.2-5.1-5.2s-5.1,2.2-5.1,5.2
			S305.3,441.8,308.2,441.8z"/>
		<path fill="#FFFFF2" d="M329.4,428c4.5,0,8.2,3,8.2,8.4c0,0.4,0,0.7,0,1.2h-13.4c0.2,2.8,2.4,4.6,5.2,4.6c2.4,0,4-1.1,4.9-2.6
			l2.9,2c-1.5,2.4-4.2,3.9-7.8,3.9c-5.2,0-8.9-3.7-8.9-8.8C320.5,431.8,324.3,428,329.4,428z M324.4,434.9h9.5
			c-0.4-2.4-2.4-3.8-4.6-3.8S324.9,432.4,324.4,434.9z"/>
		<path fill="#FFFFF2" d="M206.3,475.1l-3.7,11h-3.5l-5.7-17h3.9l3.7,11.7l3.9-11.7h2.9l3.9,11.7l3.7-11.7h4l-5.7,17h-3.5
			L206.3,475.1z"/>
		<path fill="#FFFFF2" d="M229.7,486.4c-5,0-8.9-3.9-8.9-8.8s3.9-8.8,8.9-8.8c5,0,8.9,3.9,8.9,8.8S234.7,486.4,229.7,486.4z
			 M229.7,483c3,0,5.1-2.3,5.1-5.4s-2.1-5.4-5.1-5.4c-3,0-5.1,2.3-5.1,5.4S226.6,483,229.7,483z"/>
		<path fill="#FFFFF2" d="M242.3,469.1h3.7v3c0.6-1.9,2.5-3.2,4.5-3.2c0.5,0,1,0,1.5,0.1v3.8c-0.6-0.2-1.2-0.3-1.9-0.3
			c-2.1,0-4.1,1.8-4.1,5.2v8.3h-3.7V469.1z"/>
		<path fill="#FFFFF2" d="M255.3,460.6h3.7v15l6.5-6.5h4.7l-7.6,7.6l9.3,9.4h-4.8l-8.1-8.2v8.2h-3.7V460.6z"/>
		<path fill="#FFFFF2" d="M273.9,460.6h3.7v25.5h-3.7V460.6z"/>
		<path fill="#FFFFF2" d="M290.3,486.4c-5,0-8.9-3.9-8.9-8.8s3.9-8.8,8.9-8.8c5,0,8.9,3.9,8.9,8.8S295.4,486.4,290.3,486.4z
			 M290.3,483c3,0,5.1-2.3,5.1-5.4s-2.1-5.4-5.1-5.4c-3,0-5.1,2.3-5.1,5.4S287.3,483,290.3,483z"/>
		<path fill="#FFFFF2" d="M310,468.8c2.4,0,4.5,1.3,5.4,2.6v-2.3h3.7v17h-3.7v-2.3c-1,1.4-3,2.6-5.4,2.6c-4.7,0-8.2-4-8.2-8.8
			S305.3,468.8,310,468.8z M310.7,472.2c-3,0-5.1,2.4-5.1,5.4s2,5.4,5.1,5.4c3,0,5.1-2.4,5.1-5.4S313.7,472.2,310.7,472.2z"/>
		<path fill="#FFFFF2" d="M331.2,468.8c2.4,0,4.5,1.3,5.4,2.6v-10.8h3.7v25.5h-3.7v-2.3c-1,1.4-3,2.6-5.4,2.6c-4.7,0-8.2-4-8.2-8.8
			S326.5,468.8,331.2,468.8z M331.9,472.2c-3,0-5.1,2.4-5.1,5.4s2,5.4,5.1,5.4c3,0,5.1-2.4,5.1-5.4S334.9,472.2,331.9,472.2z"/>
	</g>
	<g>
		<path fill="#FFFFF2" d="M210.8,190.1h-2.6v-2.4h2.6v-2.1c0-2.8,1.9-4.3,4.3-4.3c0.8,0,1.5,0.1,2,0.3v2.4c-0.4-0.1-0.9-0.2-1.5-0.2
			c-1.4,0-2.1,0.6-2.1,2.1v1.8h3.6v2.4h-3.6v10h-2.7V190.1z"/>
		<path fill="#FFFFF2" d="M224.6,200.4c-3.7,0-6.5-2.9-6.5-6.5s2.8-6.5,6.5-6.5s6.5,2.9,6.5,6.5S228.3,200.4,224.6,200.4z
			 M224.6,197.9c2.2,0,3.7-1.7,3.7-3.9s-1.5-3.9-3.7-3.9c-2.2,0-3.8,1.7-3.8,3.9S222.4,197.9,224.6,197.9z"/>
		<path fill="#FFFFF2" d="M234,187.7h2.7v2.2c0.5-1.4,1.9-2.3,3.3-2.3c0.4,0,0.7,0,1.1,0.1v2.8c-0.5-0.2-0.9-0.2-1.4-0.2
			c-1.6,0-3,1.3-3,3.8v6.1H234V187.7z"/>
		<path fill="#FFFFF2" d="M254.4,200.4c-3.7,0-6.6-2.8-6.6-6.5s2.8-6.5,6.6-6.5c2.6,0,4.7,1.4,5.8,3.4l-2.4,1.3
			c-0.6-1.3-1.8-2.2-3.4-2.2c-2.2,0-3.8,1.7-3.8,3.9s1.6,3.9,3.8,3.9c1.6,0,2.8-0.9,3.4-2.2l2.4,1.3
			C259.2,199.1,257,200.4,254.4,200.4z"/>
		<path fill="#FFFFF2" d="M268.4,200.4c-3.7,0-6.5-2.9-6.5-6.5s2.8-6.5,6.5-6.5s6.5,2.9,6.5,6.5S272.1,200.4,268.4,200.4z
			 M268.4,197.9c2.2,0,3.7-1.7,3.7-3.9s-1.5-3.9-3.7-3.9c-2.2,0-3.8,1.7-3.8,3.9S266.2,197.9,268.4,197.9z"/>
		<path fill="#FFFFF2" d="M283.4,200.4c-3.7,0-6.5-2.9-6.5-6.5s2.8-6.5,6.5-6.5s6.5,2.9,6.5,6.5S287.1,200.4,283.4,200.4z
			 M283.4,197.9c2.2,0,3.7-1.7,3.7-3.9s-1.5-3.9-3.7-3.9c-2.2,0-3.8,1.7-3.8,3.9S281.2,197.9,283.4,197.9z"/>
		<path fill="#FFFFF2" d="M292.7,181.5h2.7v18.7h-2.7V181.5z"/>
		<path fill="#FFFFF2" d="M300.6,185c-1,0-1.8-0.8-1.8-1.8c0-1,0.9-1.8,1.8-1.8c1,0,1.8,0.8,1.8,1.8
			C302.4,184.2,301.6,185,300.6,185z M299.2,187.7h2.7v12.5h-2.7V187.7z"/>
		<path fill="#FFFFF2" d="M305.6,187.7h2.7v1.7c0.8-1.2,2.2-1.9,3.8-1.9c2.9,0,4.8,2,4.8,5.2v7.5h-2.7v-7.1c0-2-1-3.2-2.6-3.2
			c-1.8,0-3.2,1.4-3.2,4.1v6.1h-2.7V187.7z"/>
		<path fill="#FFFFF2" d="M325.9,205.7c-2.4,0-4.6-0.9-5.8-2.3l1.7-2c1,1.2,2.5,1.8,4.1,1.8c2.1,0,3.8-1.4,3.8-3.9v-1.1
			c-0.7,1.1-2.3,1.9-4,1.9c-3.4,0-6-2.8-6-6.3c0-3.5,2.6-6.3,6-6.3c1.7,0,3.2,0.8,4,1.9v-1.7h2.7v11.6
			C332.4,203.7,329.6,205.7,325.9,205.7z M326.1,197.6c2.1,0,3.7-1.6,3.7-3.8c0-2.2-1.6-3.8-3.7-3.8s-3.7,1.6-3.7,3.8
			C322.4,196,324,197.6,326.1,197.6z"/>
	</g>
</g>
<g id="Group-4-Copy" transform="translate(418.000000, 260.000000)">
	<polygon id="Rectangle_1_" fill-rule="evenodd" clip-rule="evenodd" fill="#4F4F4F" points="126.5,243.2 389.5,243.2 389.5,440 
		126.5,439.8 	"/>
	
		<rect id="Rectangle-Copy-3_1_" x="126.5" y="97.2" fill-rule="evenodd" clip-rule="evenodd" fill="#828282" width="263" height="146"/>
	<g>
		<path fill="#FFFFF2" d="M195.3,167.4h-2.6V165h2.6v-2.1c0-2.8,1.9-4.3,4.3-4.3c0.8,0,1.5,0.1,2,0.3v2.4c-0.4-0.1-0.9-0.2-1.5-0.2
			c-1.4,0-2.1,0.6-2.1,2.1v1.8h3.6v2.4H198v10h-2.7V167.4z"/>
		<path fill="#FFFFF2" d="M209.1,177.7c-3.7,0-6.5-2.9-6.5-6.5c0-3.6,2.8-6.5,6.5-6.5s6.5,2.9,6.5,6.5
			C215.7,174.8,212.8,177.7,209.1,177.7z M209.1,175.2c2.2,0,3.7-1.7,3.7-3.9c0-2.2-1.5-3.9-3.7-3.9c-2.2,0-3.8,1.7-3.8,3.9
			C205.4,173.4,206.9,175.2,209.1,175.2z"/>
		<path fill="#FFFFF2" d="M218.5,165h2.7v2.2c0.5-1.4,1.9-2.3,3.3-2.3c0.4,0,0.7,0,1.1,0.1v2.8c-0.5-0.2-0.9-0.2-1.4-0.2
			c-1.6,0-3,1.3-3,3.8v6.1h-2.7V165z"/>
		<path fill="#FFFFF2" d="M238.9,177.7c-3.7,0-6.6-2.8-6.6-6.5c0-3.7,2.8-6.5,6.6-6.5c2.6,0,4.7,1.4,5.8,3.4l-2.4,1.3
			c-0.6-1.3-1.8-2.2-3.4-2.2c-2.2,0-3.8,1.7-3.8,3.9c0,2.2,1.6,3.9,3.8,3.9c1.6,0,2.8-0.9,3.4-2.2l2.4,1.3
			C243.7,176.3,241.5,177.7,238.9,177.7z"/>
		<path fill="#FFFFF2" d="M252.9,177.7c-3.7,0-6.5-2.9-6.5-6.5c0-3.6,2.8-6.5,6.5-6.5s6.5,2.9,6.5,6.5
			C259.5,174.8,256.6,177.7,252.9,177.7z M252.9,175.2c2.2,0,3.7-1.7,3.7-3.9c0-2.2-1.5-3.9-3.7-3.9c-2.2,0-3.8,1.7-3.8,3.9
			C249.2,173.4,250.7,175.2,252.9,175.2z"/>
		<path fill="#FFFFF2" d="M267.9,177.7c-3.7,0-6.5-2.9-6.5-6.5c0-3.6,2.8-6.5,6.5-6.5s6.5,2.9,6.5,6.5
			C274.4,174.8,271.6,177.7,267.9,177.7z M267.9,175.2c2.2,0,3.7-1.7,3.7-3.9c0-2.2-1.5-3.9-3.7-3.9c-2.2,0-3.8,1.7-3.8,3.9
			C264.1,173.4,265.7,175.2,267.9,175.2z"/>
		<path fill="#FFFFF2" d="M277.2,158.7h2.7v18.7h-2.7V158.7z"/>
		<path fill="#FFFFF2" d="M285.1,162.2c-1,0-1.8-0.8-1.8-1.8c0-1,0.9-1.8,1.8-1.8c1,0,1.8,0.8,1.8,1.8
			C286.9,161.4,286.1,162.2,285.1,162.2z M283.7,165h2.7v12.5h-2.7V165z"/>
		<path fill="#FFFFF2" d="M290.1,165h2.7v1.7c0.8-1.2,2.2-2,3.8-2c2.9,0,4.8,2,4.8,5.2v7.5h-2.7v-7.1c0-2-1-3.2-2.6-3.2
			c-1.8,0-3.2,1.4-3.2,4.1v6.1h-2.7V165z"/>
		<path fill="#FFFFF2" d="M310.3,182.9c-2.4,0-4.6-0.9-5.8-2.3l1.7-2c1,1.2,2.5,1.8,4.1,1.8c2.1,0,3.8-1.4,3.8-3.9v-1.1
			c-0.7,1.1-2.3,1.9-4,1.9c-3.4,0-6-2.8-6-6.3c0-3.5,2.6-6.3,6-6.3c1.7,0,3.2,0.8,4,1.9V165h2.7v11.6
			C316.8,181,314,182.9,310.3,182.9z M310.6,174.9c2.1,0,3.7-1.6,3.7-3.8c0-2.2-1.6-3.8-3.7-3.8s-3.7,1.6-3.7,3.8
			C306.9,173.3,308.5,174.9,310.6,174.9z"/>
	</g>
</g>
<g id="Group-4-Copy-2" transform="translate(718.000000, 363.000000)">
	<polygon id="Rectangle_2_" fill-rule="evenodd" clip-rule="evenodd" fill="#4F4F4F" points="123.5,140.2 386.5,140.2 386.5,337.3 
		123.5,336.9 	"/>
	
		<rect id="Rectangle-Copy-3_2_" x="123.5" y="96" fill-rule="evenodd" clip-rule="evenodd" fill="#828282" width="263" height="44.2"/>
	
		<rect id="Rectangle-Copy-3_6_" x="627.5" y="133.6" fill-rule="evenodd" clip-rule="evenodd" fill="#828282" width="263" height="3.6"/>
	<g enable-background="new    ">
		<path fill="#FFFFF2" d="M170.1,229.5h-3.5v-3.3h3.5v-2.9c0-3.8,2.5-5.8,5.8-5.8c1.2,0,2.1,0.2,2.8,0.4v3.3c-0.5-0.2-1.3-0.3-2-0.3
			c-1.9,0-2.9,0.8-2.9,2.9v2.4h4.9v3.3h-4.9v13.7h-3.7V229.5z"/>
		<path fill="#FFFFF2" d="M189,243.5c-5,0-8.9-3.9-8.9-8.8s3.9-8.8,8.9-8.8c5,0,8.9,3.9,8.9,8.8S194,243.5,189,243.5z M189,240.1
			c3,0,5.1-2.3,5.1-5.4s-2.1-5.4-5.1-5.4c-3,0-5.1,2.3-5.1,5.4S186,240.1,189,240.1z"/>
		<path fill="#FFFFF2" d="M201.7,226.2h3.7v3c0.6-1.9,2.5-3.2,4.5-3.2c0.5,0,1,0,1.5,0.1v3.8c-0.6-0.2-1.2-0.3-1.9-0.3
			c-2.1,0-4.1,1.8-4.1,5.2v8.3h-3.7V226.2z"/>
		<path fill="#FFFFF2" d="M227.2,243.5c-3,0-5.6-1.2-6.8-3.6l2.8-2c0.7,1.5,2.3,2.3,4.1,2.3c1.3,0,2.4-0.6,2.4-1.8
			c0-1-0.6-1.6-2.6-2.2l-1.5-0.4c-3-0.8-4.5-2.7-4.5-5.2c0-3,2.7-4.9,6.1-4.9c2.5,0,4.6,1,5.7,2.9l-2.6,2c-0.7-1.1-1.8-1.7-3.2-1.7
			c-1.1,0-2.3,0.6-2.3,1.6c0,0.8,0.4,1.5,2,2l1.7,0.5c3,0.9,4.8,2.4,4.8,5.2C233.3,241.5,230.7,243.5,227.2,243.5z"/>
		<path fill="#FFFFF2" d="M244.9,225.9c4.5,0,8.2,3,8.2,8.4c0,0.4,0,0.7,0,1.2h-13.4c0.2,2.8,2.4,4.6,5.2,4.6c2.4,0,4-1.1,4.9-2.6
			l2.9,2c-1.5,2.4-4.2,3.9-7.8,3.9c-5.2,0-8.9-3.7-8.9-8.8C236,229.7,239.7,225.9,244.9,225.9z M239.8,232.8h9.5
			c-0.4-2.4-2.4-3.8-4.6-3.8C242.6,229,240.3,230.3,239.8,232.8z"/>
		<path fill="#FFFFF2" d="M256.9,226.2h3.7v3c0.6-1.9,2.5-3.2,4.5-3.2c0.5,0,1,0,1.5,0.1v3.8c-0.6-0.2-1.2-0.3-1.9-0.3
			c-2.1,0-4.1,1.8-4.1,5.2v8.3h-3.7V226.2z"/>
		<path fill="#FFFFF2" d="M267.4,226.2h4.1l5.2,11.9l5.2-11.9h4.2l-7.7,17h-3.3L267.4,226.2z"/>
		<path fill="#FFFFF2" d="M296,225.9c4.5,0,8.2,3,8.2,8.4c0,0.4,0,0.7,0,1.2h-13.4c0.2,2.8,2.4,4.6,5.2,4.6c2.4,0,4-1.1,4.9-2.6
			l2.9,2c-1.5,2.4-4.2,3.9-7.8,3.9c-5.2,0-8.9-3.7-8.9-8.8C287.1,229.7,290.8,225.9,296,225.9z M291,232.8h9.5
			c-0.4-2.4-2.4-3.8-4.6-3.8S291.5,230.3,291,232.8z"/>
		<path fill="#FFFFF2" d="M308,226.2h3.7v3c0.6-1.9,2.5-3.2,4.5-3.2c0.5,0,1,0,1.5,0.1v3.8c-0.6-0.2-1.2-0.3-1.9-0.3
			c-2.1,0-4.1,1.8-4.1,5.2v8.3H308V226.2z"/>
		<path fill="#FFFFF2" d="M326,243.5c-3,0-5.6-1.2-6.8-3.6l2.8-2c0.7,1.5,2.3,2.3,4.1,2.3c1.3,0,2.4-0.6,2.4-1.8
			c0-1-0.6-1.6-2.6-2.2l-1.5-0.4c-3-0.8-4.5-2.7-4.5-5.2c0-3,2.7-4.9,6.1-4.9c2.5,0,4.6,1,5.7,2.9l-2.6,2c-0.7-1.1-1.8-1.7-3.2-1.7
			c-1.1,0-2.3,0.6-2.3,1.6c0,0.8,0.4,1.5,2,2l1.7,0.5c3,0.9,4.8,2.4,4.8,5.2C332.2,241.5,329.5,243.5,326,243.5z"/>
	</g>
	<g enable-background="new    ">
		<path fill="#FFFFF2" d="M-129.3,229.5h-3.5v-3.3h3.5v-2.9c0-3.8,2.5-5.8,5.8-5.8c1.2,0,2.1,0.2,2.8,0.4v3.3
			c-0.5-0.2-1.3-0.3-2-0.3c-1.9,0-2.9,0.8-2.9,2.9v2.4h4.9v3.3h-4.9v13.7h-3.7V229.5z"/>
		<path fill="#FFFFF2" d="M-110.5,243.5c-5,0-8.9-3.9-8.9-8.8s3.9-8.8,8.9-8.8c5,0,8.9,3.9,8.9,8.8S-105.5,243.5-110.5,243.5z
			 M-110.5,240.1c3,0,5.1-2.3,5.1-5.4s-2.1-5.4-5.1-5.4c-3,0-5.1,2.3-5.1,5.4S-113.5,240.1-110.5,240.1z"/>
		<path fill="#FFFFF2" d="M-97.8,226.2h3.7v3c0.6-1.9,2.5-3.2,4.5-3.2c0.5,0,1,0,1.5,0.1v3.8c-0.6-0.2-1.2-0.3-1.9-0.3
			c-2.1,0-4.1,1.8-4.1,5.2v8.3h-3.7V226.2z"/>
		<path fill="#FFFFF2" d="M-72.3,243.5c-3,0-5.6-1.2-6.8-3.6l2.8-2c0.7,1.5,2.3,2.3,4.1,2.3c1.3,0,2.4-0.6,2.4-1.8
			c0-1-0.6-1.6-2.6-2.2l-1.5-0.4c-3-0.8-4.5-2.7-4.5-5.2c0-3,2.7-4.9,6.1-4.9c2.5,0,4.6,1,5.7,2.9l-2.6,2c-0.7-1.1-1.8-1.7-3.2-1.7
			c-1.1,0-2.3,0.6-2.3,1.6c0,0.8,0.4,1.5,2,2l1.7,0.5c3,0.9,4.8,2.4,4.8,5.2C-66.2,241.5-68.8,243.5-72.3,243.5z"/>
		<path fill="#FFFFF2" d="M-54.6,225.9c4.5,0,8.2,3,8.2,8.4c0,0.4,0,0.7,0,1.2h-13.4c0.2,2.8,2.4,4.6,5.2,4.6c2.4,0,4-1.1,4.9-2.6
			l2.9,2c-1.5,2.4-4.2,3.9-7.8,3.9c-5.2,0-8.9-3.7-8.9-8.8C-63.5,229.7-59.8,225.9-54.6,225.9z M-59.6,232.8h9.5
			c-0.4-2.4-2.4-3.8-4.6-3.8S-59.1,230.3-59.6,232.8z"/>
		<path fill="#FFFFF2" d="M-42.6,226.2h3.7v3c0.6-1.9,2.5-3.2,4.5-3.2c0.5,0,1,0,1.5,0.1v3.8c-0.6-0.2-1.2-0.3-1.9-0.3
			c-2.1,0-4.1,1.8-4.1,5.2v8.3h-3.7V226.2z"/>
		<path fill="#FFFFF2" d="M-32,226.2h4.1l5.2,11.9l5.2-11.9h4.2l-7.7,17h-3.3L-32,226.2z"/>
		<path fill="#FFFFF2" d="M-3.5,225.9c4.5,0,8.2,3,8.2,8.4c0,0.4,0,0.7,0,1.2H-8.7c0.2,2.8,2.4,4.6,5.2,4.6c2.4,0,4-1.1,4.9-2.6
			l2.9,2c-1.5,2.4-4.2,3.9-7.8,3.9c-5.2,0-8.9-3.7-8.9-8.8C-12.3,229.7-8.6,225.9-3.5,225.9z M-8.5,232.8H1
			c-0.4-2.4-2.4-3.8-4.6-3.8S-8,230.3-8.5,232.8z"/>
		<path fill="#FFFFF2" d="M8.6,226.2h3.7v3c0.6-1.9,2.5-3.2,4.5-3.2c0.5,0,1,0,1.5,0.1v3.8c-0.6-0.2-1.2-0.3-1.9-0.3
			c-2.1,0-4.1,1.8-4.1,5.2v8.3H8.6V226.2z"/>
		<path fill="#FFFFF2" d="M26.6,243.5c-3,0-5.6-1.2-6.8-3.6l2.8-2c0.7,1.5,2.3,2.3,4.1,2.3c1.3,0,2.4-0.6,2.4-1.8
			c0-1-0.6-1.6-2.6-2.2l-1.5-0.4c-3-0.8-4.5-2.7-4.5-5.2c0-3,2.7-4.9,6.1-4.9c2.5,0,4.6,1,5.7,2.9l-2.6,2c-0.7-1.1-1.8-1.7-3.2-1.7
			c-1.1,0-2.3,0.6-2.3,1.6c0,0.8,0.4,1.5,2,2l1.7,0.5c3,0.9,4.8,2.4,4.8,5.2C32.7,241.5,30.1,243.5,26.6,243.5z"/>
	</g>
</g>
<g id="Group-2" transform="translate(1228.000000, 403.000000)">
	
		<rect id="Rectangle-Copy-4" x="117.5" y="260.9" fill-rule="evenodd" clip-rule="evenodd" fill="#4F4F4F" width="263" height="36.9"/>
	<rect id="Rectangle-Copy-5" x="117.5" y="97.2" fill="#32F295" width="263" height="163.7"/>
	<g enable-background="new    ">
		<path d="M197.7,130.9c4.5,0,8.2,3,8.2,8.4c0,0.4,0,0.7,0,1.2h-13.4c0.2,2.8,2.4,4.6,5.2,4.6c2.4,0,4-1.1,4.9-2.6l2.9,2
			c-1.5,2.4-4.2,3.9-7.8,3.9c-5.2,0-8.9-3.7-8.9-8.8C188.8,134.7,192.5,130.9,197.7,130.9z M192.7,137.8h9.5
			c-0.4-2.4-2.4-3.8-4.6-3.8S193.2,135.3,192.7,137.8z"/>
		<path d="M209.7,131.2h3.7v2.3c1-1.7,3-2.7,5.2-2.7c3.9,0,6.5,2.8,6.5,7.1v10.2h-3.7v-9.6c0-2.7-1.4-4.3-3.5-4.3
			c-2.5,0-4.4,1.9-4.4,5.6v8.4h-3.7V131.2z"/>
		<path d="M237.6,130.9c4.5,0,8.2,3,8.2,8.4c0,0.4,0,0.7,0,1.2h-13.4c0.2,2.8,2.4,4.6,5.2,4.6c2.4,0,4-1.1,4.9-2.6l2.9,2
			c-1.5,2.4-4.2,3.9-7.8,3.9c-5.2,0-8.9-3.7-8.9-8.8C228.7,134.7,232.4,130.9,237.6,130.9z M232.6,137.8h9.5
			c-0.4-2.4-2.4-3.8-4.6-3.8S233.1,135.3,232.6,137.8z"/>
		<path d="M249.6,131.2h3.7v3c0.6-1.9,2.5-3.2,4.5-3.2c0.5,0,1,0,1.5,0.1v3.8c-0.6-0.2-1.2-0.3-1.9-0.3c-2.1,0-4.1,1.8-4.1,5.2v8.3
			h-3.7V131.2z"/>
		<path d="M269.3,155.6c-3.3,0-6.3-1.3-8-3.1l2.3-2.7c1.4,1.6,3.4,2.5,5.6,2.5c2.8,0,5.1-1.9,5.1-5.3v-1.6c-1,1.5-3.1,2.7-5.4,2.7
			c-4.6,0-8.2-3.8-8.2-8.6c0-4.8,3.6-8.6,8.2-8.6c2.3,0,4.4,1.1,5.4,2.6v-2.3h3.7V147C278.2,153,274.4,155.6,269.3,155.6z
			 M269.7,144.7c2.9,0,5.1-2.2,5.1-5.2s-2.2-5.2-5.1-5.2s-5.1,2.2-5.1,5.2S266.8,144.7,269.7,144.7z"/>
		<path d="M284.5,155.3l3.6-8l-7.3-16.1h4.1l5.2,12l5.2-12h4.1l-10.9,24.1H284.5z"/>
		<path d="M162.4,172h3.7v3c0.6-1.9,2.5-3.2,4.5-3.2c0.5,0,1,0,1.5,0.1v3.8c-0.6-0.2-1.2-0.3-1.9-0.3c-2.1,0-4.1,1.8-4.1,5.2v8.3
			h-3.7V172z"/>
		<path d="M182.4,171.7c4.5,0,8.2,3,8.2,8.4c0,0.4,0,0.7,0,1.2h-13.4c0.2,2.8,2.4,4.6,5.2,4.6c2.4,0,4-1.1,4.9-2.6l2.9,2
			c-1.5,2.4-4.2,3.9-7.8,3.9c-5.2,0-8.9-3.7-8.9-8.8C173.5,175.5,177.2,171.7,182.4,171.7z M177.4,178.6h9.5
			c-0.4-2.4-2.4-3.8-4.6-3.8S177.9,176.1,177.4,178.6z"/>
		<path d="M194,177.6h9.1v3.7H194V177.6z"/>
		<path d="M207.5,172h3.7v9.6c0,2.7,1.2,4.4,3.4,4.4c2.4,0,4.1-1.9,4.1-5.6V172h3.7v17h-3.7v-2.3c-1,1.7-2.8,2.7-5,2.7
			c-3.9,0-6.3-2.8-6.3-7.2V172z"/>
		<path d="M233,189.3c-3,0-5.6-1.2-6.8-3.6l2.8-2c0.7,1.5,2.3,2.3,4.1,2.3c1.3,0,2.4-0.6,2.4-1.8c0-1-0.6-1.6-2.6-2.2l-1.5-0.4
			c-3-0.8-4.5-2.7-4.5-5.2c0-3,2.7-4.9,6.1-4.9c2.5,0,4.6,1,5.7,2.9l-2.6,2c-0.7-1.1-1.8-1.7-3.2-1.7c-1.1,0-2.3,0.6-2.3,1.6
			c0,0.8,0.4,1.5,2,2l1.7,0.5c3,0.9,4.8,2.4,4.8,5.2C239.2,187.3,236.5,189.3,233,189.3z"/>
		<path d="M250.7,171.7c4.5,0,8.2,3,8.2,8.4c0,0.4,0,0.7,0,1.2h-13.4c0.2,2.8,2.4,4.6,5.2,4.6c2.4,0,4-1.1,4.9-2.6l2.9,2
			c-1.5,2.4-4.2,3.9-7.8,3.9c-5.2,0-8.9-3.7-8.9-8.8C241.8,175.5,245.6,171.7,250.7,171.7z M245.7,178.6h9.5
			c-0.4-2.4-2.4-3.8-4.6-3.8S246.2,176.1,245.7,178.6z"/>
		<path d="M269.7,171.7c2.4,0,4.5,1.3,5.4,2.6v-10.8h3.7V189h-3.7v-2.3c-1,1.4-3,2.6-5.4,2.6c-4.7,0-8.2-4-8.2-8.8
			S265.1,171.7,269.7,171.7z M270.4,175.1c-3,0-5.1,2.4-5.1,5.4c0,3.1,2,5.4,5.1,5.4c3,0,5.1-2.4,5.1-5.4
			C275.5,177.4,273.4,175.1,270.4,175.1z"/>
		<path d="M293.3,175.3h-3.5V172h3.5v-2.9c0-3.8,2.5-5.8,5.8-5.8c1.2,0,2.1,0.2,2.8,0.4v3.3c-0.5-0.2-1.3-0.3-2-0.3
			c-1.9,0-2.9,0.8-2.9,2.9v2.4h4.9v3.3H297V189h-3.7V175.3z"/>
		<path d="M312.1,189.3c-5,0-8.9-3.9-8.9-8.8s3.9-8.8,8.9-8.8c5,0,8.9,3.9,8.9,8.8S317.2,189.3,312.1,189.3z M312.1,185.9
			c3,0,5.1-2.3,5.1-5.4s-2.1-5.4-5.1-5.4c-3,0-5.1,2.3-5.1,5.4S309.1,185.9,312.1,185.9z"/>
		<path d="M324.8,172h3.7v3c0.6-1.9,2.5-3.2,4.5-3.2c0.5,0,1,0,1.5,0.1v3.8c-0.6-0.2-1.2-0.3-1.9-0.3c-2.1,0-4.1,1.8-4.1,5.2v8.3
			h-3.7V172z"/>
		<path d="M183.6,204.3h3.7v10.8c1-1.7,3-2.7,5.2-2.7c3.9,0,6.5,2.8,6.5,7.1v10.2h-3.7v-9.6c0-2.7-1.4-4.3-3.5-4.3
			c-2.5,0-4.4,1.9-4.4,5.6v8.4h-3.7V204.3z"/>
		<path d="M211.5,212.5c4.5,0,8.2,3,8.2,8.4c0,0.4,0,0.7,0,1.2h-13.4c0.2,2.8,2.4,4.6,5.2,4.6c2.4,0,4-1.1,4.9-2.6l2.9,2
			c-1.5,2.4-4.2,3.9-7.8,3.9c-5.2,0-8.9-3.7-8.9-8.8C202.6,216.3,206.3,212.5,211.5,212.5z M206.4,219.4h9.5
			c-0.4-2.4-2.4-3.8-4.6-3.8S206.9,216.9,206.4,219.4z"/>
		<path d="M230.5,212.5c2.4,0,4.5,1.3,5.4,2.6v-2.3h3.7v17h-3.7v-2.3c-1,1.4-3,2.6-5.4,2.6c-4.7,0-8.2-4-8.2-8.8
			S225.8,212.5,230.5,212.5z M231.2,215.9c-3,0-5.1,2.4-5.1,5.4c0,3.1,2,5.4,5.1,5.4c3,0,5.1-2.4,5.1-5.4
			C236.2,218.2,234.2,215.9,231.2,215.9z"/>
		<path d="M252.1,230c-3.3,0-5.8-1.8-5.8-5.6v-8.2h-3.5v-3.3h3.5v-4.7h3.7v4.7h4.9v3.3H250v7.6c0,2.1,0.9,2.9,2.9,2.9
			c0.7,0,1.5-0.1,2-0.3v3.3C254.1,229.8,253.3,230,252.1,230z"/>
		<path d="M260.3,209.1c-1.4,0-2.5-1.1-2.5-2.5c0-1.4,1.2-2.5,2.5-2.5c1.4,0,2.5,1.1,2.5,2.5C262.8,208,261.7,209.1,260.3,209.1z
			 M258.4,212.8h3.7v17h-3.7V212.8z"/>
		<path d="M267.2,212.8h3.7v2.3c1-1.7,3-2.7,5.2-2.7c3.9,0,6.5,2.8,6.5,7.1v10.2h-3.7v-9.6c0-2.7-1.4-4.3-3.5-4.3
			c-2.5,0-4.4,1.9-4.4,5.6v8.4h-3.7V212.8z"/>
		<path d="M294.7,237.2c-3.3,0-6.3-1.3-8-3.1l2.3-2.7c1.4,1.6,3.4,2.5,5.6,2.5c2.8,0,5.1-1.9,5.1-5.3V227c-1,1.5-3.1,2.7-5.4,2.7
			c-4.6,0-8.2-3.8-8.2-8.6c0-4.8,3.6-8.6,8.2-8.6c2.3,0,4.4,1.1,5.4,2.6v-2.3h3.7v15.8C303.5,234.6,299.7,237.2,294.7,237.2z
			 M295,226.3c2.9,0,5.1-2.2,5.1-5.2s-2.2-5.2-5.1-5.2s-5.1,2.2-5.1,5.2S292.1,226.3,295,226.3z"/>
	</g>
	<g>
		<g enable-background="new    ">
			<path fill="#FFFFF2" d="M189.3,277.1h-2.6v-2.4h2.6v-2.1c0-2.8,1.9-4.3,4.3-4.3c0.8,0,1.5,0.1,2,0.3v2.4
				c-0.4-0.1-0.9-0.2-1.5-0.2c-1.4,0-2.1,0.6-2.1,2.1v1.8h3.6v2.4h-3.6v10h-2.7V277.1z"/>
			<path fill="#FFFFF2" d="M203.2,287.4c-3.7,0-6.5-2.9-6.5-6.5s2.8-6.5,6.5-6.5s6.5,2.9,6.5,6.5S206.9,287.4,203.2,287.4z
				 M203.2,284.9c2.2,0,3.7-1.7,3.7-3.9s-1.5-3.9-3.7-3.9c-2.2,0-3.8,1.7-3.8,3.9S201,284.9,203.2,284.9z"/>
			<path fill="#FFFFF2" d="M212.5,274.7h2.7v2.2c0.5-1.4,1.9-2.3,3.3-2.3c0.4,0,0.7,0,1.1,0.1v2.8c-0.5-0.2-0.9-0.2-1.4-0.2
				c-1.6,0-3,1.3-3,3.8v6.1h-2.7V274.7z"/>
			<path fill="#FFFFF2" d="M231.3,287.4c-2.2,0-4.1-0.9-5-2.6l2-1.4c0.5,1.1,1.7,1.7,3,1.7c1,0,1.8-0.5,1.8-1.3
				c0-0.7-0.4-1.1-1.9-1.6l-1.1-0.3c-2.2-0.6-3.3-2-3.3-3.8c0-2.2,2-3.6,4.5-3.6c1.9,0,3.3,0.8,4.2,2.1l-1.9,1.4
				c-0.5-0.8-1.3-1.3-2.4-1.3c-0.8,0-1.7,0.4-1.7,1.2c0,0.6,0.3,1.1,1.5,1.5l1.3,0.4c2.2,0.6,3.5,1.7,3.5,3.8
				C235.8,286,233.8,287.4,231.3,287.4z"/>
			<path fill="#FFFFF2" d="M244.3,274.4c3.3,0,6,2.2,6,6.2c0,0.3,0,0.5,0,0.9h-9.8c0.1,2,1.8,3.4,3.8,3.4c1.8,0,2.9-0.8,3.6-1.9
				l2.1,1.5c-1.1,1.8-3.1,2.9-5.7,2.9c-3.8,0-6.5-2.7-6.5-6.5C237.8,277.3,240.5,274.4,244.3,274.4z M240.6,279.5h6.9
				c-0.3-1.8-1.8-2.8-3.3-2.8S241,277.7,240.6,279.5z"/>
			<path fill="#FFFFF2" d="M253.1,274.7h2.7v2.2c0.5-1.4,1.9-2.3,3.3-2.3c0.4,0,0.7,0,1.1,0.1v2.8c-0.5-0.2-0.9-0.2-1.4-0.2
				c-1.6,0-3,1.3-3,3.8v6.1h-2.7V274.7z"/>
			<path fill="#FFFFF2" d="M260.9,274.7h3l3.8,8.7l3.8-8.7h3.1l-5.7,12.5h-2.4L260.9,274.7z"/>
			<path fill="#FFFFF2" d="M281.9,274.4c3.3,0,6,2.2,6,6.2c0,0.3,0,0.5,0,0.9h-9.8c0.1,2,1.8,3.4,3.8,3.4c1.8,0,2.9-0.8,3.6-1.9
				l2.1,1.5c-1.1,1.8-3.1,2.9-5.7,2.9c-3.8,0-6.5-2.7-6.5-6.5C275.4,277.3,278.1,274.4,281.9,274.4z M278.2,279.5h6.9
				c-0.3-1.8-1.8-2.8-3.3-2.8S278.6,277.7,278.2,279.5z"/>
			<path fill="#FFFFF2" d="M290.7,274.7h2.7v2.2c0.5-1.4,1.9-2.3,3.3-2.3c0.4,0,0.7,0,1.1,0.1v2.8c-0.5-0.2-0.9-0.2-1.4-0.2
				c-1.6,0-3,1.3-3,3.8v6.1h-2.7V274.7z"/>
			<path fill="#FFFFF2" d="M304,287.4c-2.2,0-4.1-0.9-5-2.6l2-1.4c0.5,1.1,1.7,1.7,3,1.7c1,0,1.8-0.5,1.8-1.3c0-0.7-0.4-1.1-1.9-1.6
				l-1.1-0.3c-2.2-0.6-3.3-2-3.3-3.8c0-2.2,2-3.6,4.5-3.6c1.9,0,3.3,0.8,4.2,2.1l-1.9,1.4c-0.5-0.8-1.3-1.3-2.4-1.3
				c-0.8,0-1.7,0.4-1.7,1.2c0,0.6,0.3,1.1,1.5,1.5l1.3,0.4c2.2,0.6,3.5,1.7,3.5,3.8C308.5,286,306.5,287.4,304,287.4z"/>
		</g>
	</g>
</g>
<g enable-background="new    ">
	<path d="M287.4,750.4c0-5,3.8-9.1,9.1-9.1c5.3,0,9.1,4.1,9.1,9.1s-3.8,9.1-9.1,9.1C291.2,759.5,287.4,755.5,287.4,750.4z
		 M303.2,750.4c0-3.7-2.6-6.8-6.6-6.8c-4,0-6.6,3.1-6.6,6.8c0,3.7,2.6,6.8,6.6,6.8C300.5,757.3,303.2,754.2,303.2,750.4z"/>
	<path d="M310.2,741.7h2.5v2.9c1.3-2.3,3.5-3.3,5.7-3.3c3.8,0,6.6,2.6,6.6,6.9v11h-2.5v-10.6c0-3.1-1.8-5-4.4-5
		c-3.1,0-5.5,2.5-5.5,6.9v8.7h-2.5V741.7z"/>
	<path d="M339.3,741.7h2.5v2.9c1.3-1.9,3.8-3.3,6.5-3.3c5,0,8.7,4.1,8.7,9.1s-3.7,9.1-8.7,9.1c-2.7,0-5.2-1.4-6.5-3.3v10.3h-2.5
		V741.7z M354.4,750.4c0-3.8-2.6-6.8-6.4-6.8s-6.4,3-6.4,6.8c0,3.8,2.6,6.8,6.4,6.8S354.4,754.2,354.4,750.4z"/>
	<path d="M361.5,741.7h2.5v3.6c0.7-2.4,3-3.8,5.1-3.8c0.4,0,0.8,0,1.3,0.1v2.6c-0.5-0.2-0.9-0.2-1.5-0.2c-2.2,0-4.9,2-4.9,6.4v8.8
		h-2.5V741.7z"/>
	<path d="M372,750.4c0-5.1,3.7-9.1,9.1-9.1c4.6,0,8.2,3.3,8.2,8.9v0.7h-14.8c0,3.6,2.7,6.4,6.5,6.4c2.9,0,4.6-1.2,5.8-3.3l2,1.3
		c-1.5,2.6-4.1,4.3-7.8,4.3C375.5,759.5,372,755.5,372,750.4z M374.7,748.7h12c-0.4-3.2-2.8-5.1-5.8-5.1
		C378,743.6,375.3,745.5,374.7,748.7z"/>
	<path d="M393.8,741.7h2.5v2.9c1-2,3-3.3,5.5-3.3c2.7,0,4.6,1.5,5.4,3.9c0.9-2.3,3-3.9,5.8-3.9c3.7,0,6,2.8,6,6.9v11h-2.5v-10.6
		c0-2.9-1.3-5-3.7-5c-3.1,0-5.2,2.7-5.2,6.9v8.7h-2.5v-10.6c0-2.9-1.3-5-3.7-5c-3.1,0-5.2,2.7-5.2,6.9v8.7h-2.5V741.7z"/>
	<path d="M424,734.6c0-1,0.8-1.9,1.9-1.9c1,0,1.8,0.8,1.8,1.9s-0.8,1.9-1.8,1.9C424.9,736.4,424,735.6,424,734.6z M424.6,741.7h2.5
		v17.5h-2.5V741.7z"/>
	<path d="M431.4,755.2l2.2-0.9c0.6,1.9,2.6,3,4.6,3c1.9,0,3.4-1,3.4-2.7c0-1.4-0.9-2.3-3.3-3.1l-1.9-0.6c-2.8-0.9-4.2-2.6-4.2-5
		c0-2.9,2.6-4.7,5.8-4.7c2.6,0,4.6,1.1,5.7,3.1l-2,1.2c-0.7-1.1-2-2.1-3.9-2.1c-1.6,0-3.3,0.9-3.3,2.4c0,1.2,0.7,2.2,2.7,2.8l2,0.6
		c3,0.9,4.7,2.5,4.7,5.1c0,3.3-2.5,5.1-5.9,5.1C435.1,759.5,432.3,758.1,431.4,755.2z"/>
	<path d="M447.3,750.4c0-5.1,3.7-9.1,9.1-9.1c4.6,0,8.2,3.3,8.2,8.9v0.7h-14.8c0,3.6,2.7,6.4,6.5,6.4c2.9,0,4.6-1.2,5.8-3.3l2,1.3
		c-1.5,2.6-4.1,4.3-7.8,4.3C450.8,759.5,447.3,755.5,447.3,750.4z M450.1,748.7h12c-0.4-3.2-2.8-5.1-5.8-5.1
		C453.4,743.6,450.6,745.5,450.1,748.7z"/>
</g>
<g enable-background="new    ">
	<path d="M572.1,754.1v-10.9h-4v-2.4h4v-5.1h2.6v5.1h5.4v2.4h-5.4v10.7c0,2.4,1.1,3.1,3.1,3.1c0.7,0,1.7-0.2,2.3-0.4v2.3
		c-0.8,0.3-1.7,0.5-2.7,0.5C574.3,759.4,572.1,757.7,572.1,754.1z"/>
	<path d="M584.3,731.4h2.6v12.4c1.3-2.4,3.7-3.5,6.1-3.5c4,0,7,2.8,7,7.3v11.6h-2.6V748c0-3.3-1.9-5.3-4.7-5.3
		c-3.3,0-5.8,2.7-5.8,7.3v9.2h-2.6V731.4z"/>
	<path d="M604.5,749.9c0-5.4,4-9.6,9.6-9.6c4.8,0,8.7,3.4,8.7,9.4v0.7h-15.6c0,3.8,2.8,6.8,6.8,6.8c3,0,4.8-1.3,6.1-3.5l2.1,1.4
		c-1.6,2.8-4.4,4.5-8.2,4.5C608.2,759.6,604.5,755.3,604.5,749.9z M607.4,748.1H620c-0.4-3.3-3-5.4-6.1-5.4
		C610.9,742.7,608,744.7,607.4,748.1z"/>
	<path d="M635,749.9c0-5.3,4-9.6,9.2-9.6c2.8,0,5.5,1.5,6.8,3.5v-3.1h2.6v18.5h-2.6v-3.1c-1.3,2-4,3.5-6.8,3.5
		C639,759.6,635,755.2,635,749.9z M651.3,749.9c0-4-2.8-7.2-6.8-7.2c-4,0-6.8,3.2-6.8,7.2s2.8,7.2,6.8,7.2
		C648.5,757.2,651.3,753.9,651.3,749.9z"/>
	<path d="M657.2,740.7h2.9l6.8,14.7l6.8-14.7h2.9l-8.7,18.5h-2L657.2,740.7z"/>
	<path d="M678.1,749.9c0-5.4,4-9.6,9.6-9.6c4.8,0,8.7,3.4,8.7,9.4v0.7h-15.6c0,3.8,2.8,6.8,6.8,6.8c3,0,4.8-1.3,6.1-3.5l2.1,1.4
		c-1.6,2.8-4.4,4.5-8.2,4.5C681.8,759.6,678.1,755.3,678.1,749.9z M681,748.1h12.7c-0.4-3.3-3-5.4-6.1-5.4
		C684.5,742.7,681.6,744.7,681,748.1z"/>
	<path d="M701.2,740.7h2.6v3.8c0.8-2.6,3.2-4,5.4-4c0.4,0,0.9,0,1.3,0.1v2.7c-0.5-0.2-1-0.3-1.6-0.3c-2.3,0-5.1,2.1-5.1,6.8v9.3
		h-2.6V740.7z"/>
	<path d="M712.2,749.9c0-5.3,4-9.6,9.2-9.6c2.8,0,5.5,1.5,6.8,3.5v-3.1h2.6v18.5h-2.6v-3.1c-1.3,2-4,3.5-6.8,3.5
		C716.2,759.6,712.2,755.2,712.2,749.9z M728.5,749.9c0-4-2.8-7.2-6.8-7.2c-4,0-6.8,3.2-6.8,7.2s2.8,7.2,6.8,7.2
		C725.7,757.2,728.5,753.9,728.5,749.9z"/>
	<path d="M736.3,763.3l2-1.7c1.4,2,3.6,3.4,6.7,3.4c3.2,0,6.5-1.9,6.5-6.8v-2.4c-1.3,2-3.9,3.5-6.8,3.5c-5.3,0-9.1-4.1-9.1-9.4
		s3.9-9.4,9.1-9.4c2.8,0,5.4,1.5,6.8,3.5v-3.1h2.6v17.5c0,6-4,9.1-9.1,9.1C740.8,767.3,737.7,765.4,736.3,763.3z M751.8,749.8
		c0-4-2.7-7-6.7-7c-4,0-6.7,3-6.7,7s2.7,7,6.7,7C749.1,756.8,751.8,753.8,751.8,749.8z"/>
	<path d="M759,749.9c0-5.4,4-9.6,9.6-9.6c4.8,0,8.7,3.4,8.7,9.4v0.7h-15.6c0,3.8,2.8,6.8,6.8,6.8c3,0,4.8-1.3,6.1-3.5l2.1,1.4
		c-1.6,2.8-4.4,4.5-8.2,4.5C762.7,759.6,759,755.3,759,749.9z M761.9,748.1h12.7c-0.4-3.3-3-5.4-6.1-5.4
		C765.4,742.7,762.6,744.7,761.9,748.1z"/>
	<path d="M577,794.3c0-5.3,4-9.6,9.2-9.6c2.8,0,5.5,1.5,6.8,3.5v-12.4h2.6v27.8h-2.6v-3.1c-1.3,2-4,3.5-6.8,3.5
		C581,804,577,799.6,577,794.3z M593.3,794.3c0-4-2.8-7.2-6.8-7.2c-4,0-6.8,3.2-6.8,7.2s2.8,7.2,6.8,7.2
		C590.5,801.6,593.3,798.3,593.3,794.3z"/>
	<path d="M600.5,794.3c0-5.3,4-9.6,9.2-9.6c2.8,0,5.5,1.5,6.8,3.5v-3.1h2.6v18.5h-2.6v-3.1c-1.3,2-4,3.5-6.8,3.5
		C604.4,804,600.5,799.6,600.5,794.3z M616.7,794.3c0-4-2.8-7.2-6.8-7.2c-4,0-6.8,3.2-6.8,7.2s2.8,7.2,6.8,7.2
		C614,801.6,616.7,798.3,616.7,794.3z"/>
	<path d="M626.8,798.5v-10.9h-4v-2.4h4V780h2.6v5.1h5.4v2.4h-5.4v10.7c0,2.4,1.1,3.1,3.1,3.1c0.7,0,1.7-0.2,2.3-0.4v2.3
		c-0.8,0.3-1.7,0.5-2.7,0.5C629.1,803.8,626.8,802.1,626.8,798.5z"/>
	<path d="M637.2,794.3c0-5.3,4-9.6,9.2-9.6c2.8,0,5.5,1.5,6.8,3.5v-3.1h2.6v18.5h-2.6v-3.1c-1.3,2-4,3.5-6.8,3.5
		C641.2,804,637.2,799.6,637.2,794.3z M653.5,794.3c0-4-2.8-7.2-6.8-7.2c-4,0-6.8,3.2-6.8,7.2s2.8,7.2,6.8,7.2
		C650.7,801.6,653.5,798.3,653.5,794.3z"/>
	<path d="M660.7,794.3c0-5.3,4-9.6,9.7-9.6c3.8,0,6.8,2,8.5,4.8l-2.3,1.3c-1.1-2.2-3.3-3.7-6.2-3.7c-4.2,0-7,3.3-7,7.2
		s2.8,7.2,7,7.2c2.9,0,5.1-1.5,6.2-3.7l2.3,1.3c-1.6,2.9-4.7,4.8-8.5,4.8C664.7,804,660.7,799.6,660.7,794.3z"/>
	<path d="M681.7,794.3c0-5.4,4-9.6,9.6-9.6c4.8,0,8.7,3.4,8.7,9.4v0.7h-15.6c0,3.8,2.8,6.8,6.8,6.8c3,0,4.8-1.3,6.1-3.5l2.1,1.4
		c-1.6,2.8-4.4,4.5-8.2,4.5C685.4,804,681.7,799.7,681.7,794.3z M684.6,792.5h12.7c-0.4-3.3-3-5.4-6.1-5.4
		C688.1,787.1,685.2,789.1,684.6,792.5z"/>
	<path d="M704.8,785.1h2.6v3.1c1.3-2.4,3.7-3.5,6.1-3.5c4,0,7,2.8,7,7.3v11.6h-2.6v-11.2c0-3.3-1.9-5.3-4.7-5.3
		c-3.3,0-5.8,2.7-5.8,7.3v9.2h-2.6V785.1z"/>
	<path d="M727.6,798.5v-10.9h-4v-2.4h4V780h2.6v5.1h5.4v2.4h-5.4v10.7c0,2.4,1.1,3.1,3.1,3.1c0.7,0,1.7-0.2,2.3-0.4v2.3
		c-0.8,0.3-1.7,0.5-2.7,0.5C729.8,803.8,727.6,802.1,727.6,798.5z"/>
	<path d="M738,794.3c0-5.4,4-9.6,9.6-9.6c4.8,0,8.7,3.4,8.7,9.4v0.7h-15.6c0,3.8,2.8,6.8,6.8,6.8c3,0,4.8-1.3,6.1-3.5l2.1,1.4
		c-1.6,2.8-4.4,4.5-8.2,4.5C741.7,804,738,799.7,738,794.3z M740.9,792.5h12.7c-0.4-3.3-3-5.4-6.1-5.4
		C744.4,787.1,741.5,789.1,740.9,792.5z"/>
	<path d="M761.1,785.1h2.6v3.8c0.8-2.6,3.2-4,5.4-4c0.4,0,0.9,0,1.3,0.1v2.7c-0.5-0.2-1-0.3-1.6-0.3c-2.3,0-5.1,2.1-5.1,6.8v9.3
		h-2.6V785.1z"/>
</g>
<g enable-background="new    ">
	<path d="M847.5,731.4h2.6v12.4c1.3-2.4,3.7-3.5,6.1-3.5c4,0,7,2.8,7,7.3v11.6h-2.6V748c0-3.3-1.9-5.3-4.7-5.3
		c-3.3,0-5.8,2.7-5.8,7.3v9.2h-2.6V731.4z"/>
	<path d="M868.6,733.2c0-1.1,0.9-2,2-2c1.1,0,1.9,0.9,1.9,2c0,1.1-0.9,2-1.9,2C869.4,735.1,868.6,734.3,868.6,733.2z M869.2,740.7
		h2.6v18.5h-2.6V740.7z"/>
	<path d="M877.3,763.3l2-1.7c1.4,2,3.6,3.4,6.7,3.4c3.2,0,6.5-1.9,6.5-6.8v-2.4c-1.3,2-3.9,3.5-6.8,3.5c-5.3,0-9.1-4.1-9.1-9.4
		s3.9-9.4,9.1-9.4c2.8,0,5.4,1.5,6.8,3.5v-3.1h2.6v17.5c0,6-4,9.1-9.1,9.1C881.8,767.3,878.7,765.4,877.3,763.3z M892.8,749.8
		c0-4-2.7-7-6.7-7c-4,0-6.7,3-6.7,7s2.7,7,6.7,7C890.1,756.8,892.8,753.8,892.8,749.8z"/>
	<path d="M901.5,731.4h2.6v12.4c1.3-2.4,3.7-3.5,6.1-3.5c4,0,7,2.8,7,7.3v11.6h-2.6V748c0-3.3-1.9-5.3-4.7-5.3
		c-3.3,0-5.8,2.7-5.8,7.3v9.2h-2.6V731.4z"/>
	<path d="M930.7,749.9c0-5.4,4-9.6,9.6-9.6c4.8,0,8.7,3.4,8.7,9.4v0.7h-15.6c0,3.8,2.8,6.8,6.8,6.8c3,0,4.8-1.3,6.1-3.5l2.1,1.4
		c-1.6,2.8-4.4,4.5-8.2,4.5C934.4,759.6,930.7,755.3,930.7,749.9z M933.6,748.1h12.7c-0.4-3.3-3-5.4-6.1-5.4
		C937.1,742.7,934.3,744.7,933.6,748.1z"/>
	<path d="M955,743.1h-4v-2.4h4v-4.1c0-3.6,2.2-5.3,5.2-5.3c1,0,2,0.2,2.8,0.5v2.3c-0.6-0.2-1.6-0.4-2.4-0.4c-2,0-3,0.8-3,3.1v3.9
		h4.7v2.4h-4.7v16.1H955V743.1z M967.7,743.1h-3.2v-2.4h3.2v-4.1c0-3.6,2.2-5.3,5.2-5.3c1,0,2,0.2,2.8,0.5v2.3
		c-0.6-0.2-1.6-0.4-2.4-0.4c-2,0-3,0.8-3,3.1v3.9h5.4v2.4h-5.4v16.1h-2.6V743.1z M978.7,733.2c0-1.1,0.9-2,2-2c1.1,0,1.9,0.9,1.9,2
		c0,1.1-0.9,2-1.9,2C979.6,735.1,978.7,734.3,978.7,733.2z M979.3,740.7h2.6v18.5h-2.6V740.7z"/>
	<path d="M986.7,749.9c0-5.3,4-9.6,9.7-9.6c3.8,0,6.8,2,8.5,4.8l-2.3,1.3c-1.1-2.2-3.3-3.7-6.2-3.7c-4.2,0-7,3.3-7,7.2
		s2.8,7.2,7,7.2c2.9,0,5.1-1.5,6.2-3.7l2.3,1.3c-1.6,2.9-4.7,4.8-8.5,4.8C990.8,759.6,986.7,755.2,986.7,749.9z"/>
	<path d="M1008.6,733.2c0-1.1,0.9-2,2-2c1.1,0,1.9,0.9,1.9,2c0,1.1-0.9,2-1.9,2C1009.5,735.1,1008.6,734.3,1008.6,733.2z
		 M1009.3,740.7h2.6v18.5h-2.6V740.7z"/>
	<path d="M1016.7,749.9c0-5.4,4-9.6,9.6-9.6c4.8,0,8.7,3.4,8.7,9.4v0.7h-15.6c0,3.8,2.8,6.8,6.8,6.8c3,0,4.8-1.3,6.1-3.5l2.1,1.4
		c-1.6,2.8-4.4,4.5-8.2,4.5C1020.4,759.6,1016.7,755.3,1016.7,749.9z M1019.6,748.1h12.7c-0.4-3.3-3-5.4-6.1-5.4
		C1023.1,742.7,1020.2,744.7,1019.6,748.1z"/>
	<path d="M1039.7,740.7h2.6v3.1c1.3-2.4,3.7-3.5,6.1-3.5c4,0,7,2.8,7,7.3v11.6h-2.6V748c0-3.3-1.9-5.3-4.7-5.3
		c-3.3,0-5.8,2.7-5.8,7.3v9.2h-2.6V740.7z"/>
	<path d="M1059.9,749.9c0-5.3,4-9.6,9.7-9.6c3.8,0,6.8,2,8.5,4.8l-2.3,1.3c-1.1-2.2-3.3-3.7-6.2-3.7c-4.2,0-7,3.3-7,7.2
		s2.8,7.2,7,7.2c2.9,0,5.1-1.5,6.2-3.7l2.3,1.3c-1.6,2.9-4.7,4.8-8.5,4.8C1063.9,759.6,1059.9,755.2,1059.9,749.9z"/>
	<path d="M1083.7,766.9l4.1-8.7l-8.2-17.6h2.9l6.8,14.7l6.8-14.7h2.9l-12.3,26.2H1083.7z"/>
	<path d="M875.5,794.3c0-5.3,4-9.6,9.2-9.6c2.8,0,5.5,1.5,6.8,3.5v-12.4h2.6v27.8h-2.6v-3.1c-1.3,2-4,3.5-6.8,3.5
		C879.5,804,875.5,799.6,875.5,794.3z M891.8,794.3c0-4-2.8-7.2-6.8-7.2c-4,0-6.8,3.2-6.8,7.2s2.8,7.2,6.8,7.2
		C889.1,801.6,891.8,798.3,891.8,794.3z"/>
	<path d="M899,794.3c0-5.3,4-9.6,9.2-9.6c2.8,0,5.5,1.5,6.8,3.5v-3.1h2.6v18.5h-2.6v-3.1c-1.3,2-4,3.5-6.8,3.5
		C903,804,899,799.6,899,794.3z M915.3,794.3c0-4-2.8-7.2-6.8-7.2c-4,0-6.8,3.2-6.8,7.2s2.8,7.2,6.8,7.2
		C912.5,801.6,915.3,798.3,915.3,794.3z"/>
	<path d="M925.4,798.5v-10.9h-4v-2.4h4V780h2.6v5.1h5.4v2.4H928v10.7c0,2.4,1.1,3.1,3.1,3.1c0.7,0,1.7-0.2,2.3-0.4v2.3
		c-0.8,0.3-1.7,0.5-2.7,0.5C927.6,803.8,925.4,802.1,925.4,798.5z"/>
	<path d="M935.8,794.3c0-5.3,4-9.6,9.2-9.6c2.8,0,5.5,1.5,6.8,3.5v-3.1h2.6v18.5h-2.6v-3.1c-1.3,2-4,3.5-6.8,3.5
		C939.7,804,935.8,799.6,935.8,794.3z M952.1,794.3c0-4-2.8-7.2-6.8-7.2c-4,0-6.8,3.2-6.8,7.2s2.8,7.2,6.8,7.2
		C949.3,801.6,952.1,798.3,952.1,794.3z"/>
	<path d="M959.2,794.3c0-5.3,4-9.6,9.7-9.6c3.8,0,6.8,2,8.5,4.8l-2.3,1.3c-1.1-2.2-3.3-3.7-6.2-3.7c-4.2,0-7,3.3-7,7.2
		s2.8,7.2,7,7.2c2.9,0,5.1-1.5,6.2-3.7l2.3,1.3c-1.6,2.9-4.7,4.8-8.5,4.8C963.3,804,959.2,799.6,959.2,794.3z"/>
	<path d="M980.3,794.3c0-5.4,4-9.6,9.6-9.6c4.8,0,8.7,3.4,8.7,9.4v0.7h-15.6c0,3.8,2.8,6.8,6.8,6.8c3,0,4.8-1.3,6.1-3.5l2.1,1.4
		c-1.6,2.8-4.4,4.5-8.2,4.5C984,804,980.3,799.7,980.3,794.3z M983.1,792.5h12.7c-0.4-3.3-3-5.4-6.1-5.4
		C986.7,787.1,983.8,789.1,983.1,792.5z"/>
	<path d="M1003.3,785.1h2.6v3.1c1.3-2.4,3.7-3.5,6.1-3.5c4,0,7,2.8,7,7.3v11.6h-2.6v-11.2c0-3.3-1.9-5.3-4.7-5.3
		c-3.3,0-5.8,2.7-5.8,7.3v9.2h-2.6V785.1z"/>
	<path d="M1026.1,798.5v-10.9h-4v-2.4h4V780h2.6v5.1h5.4v2.4h-5.4v10.7c0,2.4,1.1,3.1,3.1,3.1c0.7,0,1.7-0.2,2.3-0.4v2.3
		c-0.8,0.3-1.7,0.5-2.7,0.5C1028.4,803.8,1026.1,802.1,1026.1,798.5z"/>
	<path d="M1036.6,794.3c0-5.4,4-9.6,9.6-9.6c4.8,0,8.7,3.4,8.7,9.4v0.7h-15.6c0,3.8,2.8,6.8,6.8,6.8c3,0,4.8-1.3,6.1-3.5l2.1,1.4
		c-1.6,2.8-4.4,4.5-8.2,4.5C1040.3,804,1036.6,799.7,1036.6,794.3z M1039.5,792.5h12.7c-0.4-3.3-3-5.4-6.1-5.4
		C1043,787.1,1040.1,789.1,1039.5,792.5z"/>
	<path d="M1059.6,785.1h2.6v3.8c0.8-2.6,3.2-4,5.4-4c0.4,0,0.9,0,1.3,0.1v2.7c-0.5-0.2-1-0.3-1.6-0.3c-2.3,0-5.1,2.1-5.1,6.8v9.3
		h-2.6V785.1z"/>
</g>
<g enable-background="new    ">
	<path d="M1392,742.9h2.8v23.6h13.1v2.7H1392V742.9z"/>
	<path d="M1409.6,759.9c0-5.4,4-9.6,9.6-9.6c4.8,0,8.7,3.4,8.7,9.4v0.7h-15.6c0,3.8,2.8,6.8,6.8,6.8c3,0,4.8-1.3,6.1-3.5l2.1,1.4
		c-1.6,2.8-4.4,4.5-8.2,4.5C1413.3,769.6,1409.6,765.3,1409.6,759.9z M1412.5,758.1h12.7c-0.4-3.3-3-5.4-6.1-5.4
		C1416,752.7,1413.1,754.7,1412.5,758.1z"/>
	<path d="M1431.1,759.9c0-5.3,4-9.6,9.2-9.6c2.8,0,5.5,1.5,6.8,3.5v-3.1h2.6v18.5h-2.6v-3.1c-1.3,2-4,3.5-6.8,3.5
		C1435,769.6,1431.1,765.2,1431.1,759.9z M1447.4,759.9c0-4-2.8-7.2-6.8-7.2c-4,0-6.8,3.2-6.8,7.2s2.8,7.2,6.8,7.2
		C1444.6,767.2,1447.4,763.9,1447.4,759.9z"/>
	<path d="M1457.5,753.1h-4v-2.4h4v-4.1c0-3.6,2.2-5.3,5.2-5.3c1,0,2,0.2,2.8,0.5v2.3c-0.6-0.2-1.6-0.4-2.4-0.4c-2,0-3,0.8-3,3.1v3.9
		h5.4v2.4h-5.4v16.1h-2.6V753.1z"/>
	<path d="M1467.2,759.9c0-5.3,4-9.6,9.7-9.6c3.8,0,6.8,2,8.5,4.8l-2.3,1.3c-1.1-2.2-3.3-3.7-6.2-3.7c-4.2,0-7,3.3-7,7.2
		s2.8,7.2,7,7.2c2.9,0,5.1-1.5,6.2-3.7l2.3,1.3c-1.6,2.9-4.7,4.8-8.5,4.8C1471.2,769.6,1467.2,765.2,1467.2,759.9z"/>
	<path d="M1489.7,741.4h2.6v27.8h-2.6V741.4z"/>
	<path d="M1497.1,759.9c0-5.3,4-9.6,9.7-9.6c5.6,0,9.7,4.3,9.7,9.6s-4,9.6-9.7,9.6C1501.1,769.6,1497.1,765.2,1497.1,759.9z
		 M1513.7,759.9c0-4-2.8-7.2-7-7.2c-4.2,0-7,3.3-7,7.2s2.8,7.2,7,7.2C1511,767.2,1513.7,763.9,1513.7,759.9z"/>
	<path d="M1520.9,762.3v-11.6h2.6v11.2c0,3.2,1.8,5.3,4.5,5.3c3.1,0,5.6-2.8,5.6-7.3v-9.2h2.6v18.5h-2.6v-3.1
		c-1.3,2.4-3.6,3.5-5.9,3.5C1523.8,769.6,1520.9,766.7,1520.9,762.3z"/>
	<path d="M1541,759.9c0-5.3,4-9.6,9.2-9.6c2.8,0,5.5,1.5,6.8,3.5v-12.4h2.6v27.8h-2.6v-3.1c-1.3,2-4,3.5-6.8,3.5
		C1544.9,769.6,1541,765.2,1541,759.9z M1557.3,759.9c0-4-2.8-7.2-6.8-7.2s-6.8,3.2-6.8,7.2s2.8,7.2,6.8,7.2
		S1557.3,763.9,1557.3,759.9z"/>
</g>
<g id="Group-3" transform="translate(1020.000000, 383.000000)">
	<path id="Path-3" fill="none" stroke="#000000" stroke-width="3" stroke-linecap="round" stroke-linejoin="round" d="M116.8,82.2
		c11,4.3,21.8,16.5,28.4,28.3c16.4,29.3,1.9,58.7-4,75c-2.2,6.2,1.7,9.8,16.3,12.7c0.3,0.1-14.4,0-16.3,7
		c-2.2,8.2,18.4,49.9-2.6,85.3c-5.6,9.5-17.1,14.6-23.1,15.7"/>
	<g enable-background="new    ">
		<path d="M180,190.7c0-4.9,3.6-8.8,8.5-8.8c2.6,0,5.1,1.4,6.3,3.2v-2.9h2.4v17h-2.4v-2.9c-1.2,1.8-3.7,3.2-6.3,3.2
			C183.7,199.5,180,195.6,180,190.7z M195,190.7c0-3.7-2.5-6.6-6.3-6.6c-3.7,0-6.3,3-6.3,6.6s2.6,6.6,6.3,6.6
			C192.4,197.3,195,194.4,195,190.7z"/>
		<path d="M203,173.7h2.4v25.5H203V173.7z"/>
		<path d="M211.2,173.7h2.4v25.5h-2.4V173.7z"/>
	</g>
	<g enable-background="new    ">
		<path d="M192.3,225.2l-4.5,13h-2l-5.8-17h2.4l4.4,12.9l4.5-12.9h1.8l4.5,12.9l4.4-12.9h2.5l-5.8,17h-2L192.3,225.2z"/>
		<path d="M206.6,229.7c0-4.9,3.6-8.8,8.5-8.8c2.6,0,5.1,1.4,6.3,3.2v-2.9h2.4v17h-2.4v-2.9c-1.2,1.8-3.7,3.2-6.3,3.2
			C210.2,238.5,206.6,234.6,206.6,229.7z M221.5,229.7c0-3.7-2.5-6.6-6.3-6.6c-3.7,0-6.3,3-6.3,6.6s2.5,6.6,6.3,6.6
			C219,236.3,221.5,233.4,221.5,229.7z"/>
		<path d="M227.9,234.4l2.1-0.9c0.6,1.9,2.5,2.9,4.5,2.9c1.8,0,3.3-1,3.3-2.6c0-1.4-0.8-2.2-3.2-3l-1.8-0.6
			c-2.7-0.8-4.1-2.5-4.1-4.8c0-2.9,2.5-4.5,5.7-4.5c2.5,0,4.5,1.1,5.5,3L238,225c-0.7-1.1-1.9-2.1-3.7-2.1c-1.6,0-3.2,0.9-3.2,2.3
			c0,1.2,0.6,2.1,2.7,2.8l1.9,0.6c2.9,0.9,4.5,2.4,4.5,4.9c0,3.2-2.4,5-5.7,5C231.5,238.5,228.8,237.1,227.9,234.4z"/>
		<path d="M245.9,233.5v-10h-3.6v-2.2h3.6v-4.7h2.4v4.7h5v2.2h-5v9.8c0,2.2,1,2.9,2.8,2.9c0.7,0,1.6-0.2,2.1-0.4v2.1
			c-0.7,0.3-1.6,0.4-2.5,0.4C247.9,238.4,245.9,236.8,245.9,233.5z"/>
		<path d="M255.5,229.7c0-4.9,3.6-8.8,8.8-8.8c4.4,0,8,3.2,8,8.6v0.6h-14.3c0,3.5,2.6,6.2,6.3,6.2c2.8,0,4.5-1.2,5.6-3.2l1.9,1.3
			c-1.5,2.5-4,4.1-7.5,4.1C258.9,238.5,255.5,234.6,255.5,229.7z M258.1,228h11.7c-0.4-3.1-2.8-4.9-5.6-4.9
			C261.3,223.1,258.7,224.9,258.1,228z"/>
		<path d="M275.2,229.7c0-4.9,3.6-8.8,8.5-8.8c2.6,0,5.1,1.4,6.3,3.2v-11.4h2.4v25.5H290v-2.9c-1.2,1.8-3.7,3.2-6.3,3.2
			C278.9,238.5,275.2,234.6,275.2,229.7z M290.2,229.7c0-3.7-2.5-6.6-6.3-6.6c-3.7,0-6.3,3-6.3,6.6s2.5,6.6,6.3,6.6
			C287.6,236.3,290.2,233.4,290.2,229.7z"/>
	</g>
</g>
<path id="Path-3-Copy" fill="none" stroke="#000000" stroke-width="3" stroke-linejoin="round" d="M1628.8,503.2
	c28,17.9,32,62.1,26.4,85.8c-1.2,4.8,1.7,8.7,16.3,11.2c0.3,0.1-14.4,0-16.3,6.2c-2.9,10.6,7.4,74.6-25.7,89.8"/>
<g enable-background="new    ">
	<path d="M145,226.7h-16.9v-1.4c0-5.6,4.6-8.1,8.4-10.8c2.6-1.9,4.3-3.3,4.3-5.9c0-2.3-1.5-3.9-4.1-3.9c-2.6,0-4.6,1.7-4.6,4.4h-4
		c0-4.9,3.8-8.2,8.6-8.2c4.3,0,8,2.6,8,7.7c0,4.1-1.9,6.3-5.7,9c-2.3,1.7-5.1,3.2-5.8,5.5H145V226.7z"/>
	<path d="M151.5,227c-1.7,0-3.1-1.4-3.1-3.1c0-1.7,1.4-3.1,3.1-3.1c1.7,0,3.1,1.4,3.1,3.1C154.6,225.6,153.2,227,151.5,227z"/>
	<path d="M161.5,219.6c0.5,2.1,2.4,3.6,4.8,3.6c2.9,0,4.8-2.1,4.8-4.8c0-2.7-1.9-4.8-4.7-4.8c-2.1,0-3.6,1-4.5,2.6l-3.6-1.1l2.7-14
		h12.2v3.9h-9.1l-1.2,6.1c0.9-0.6,2.3-1.1,4-1.1c4.9,0,8.1,3.7,8.1,8.8c0,4.8-3.6,8.2-8.8,8.2c-4.6,0-8.7-3.3-8.8-7.5H161.5z"/>
</g>
<g enable-background="new    ">
	<path d="M120.9,347.1h-5.1l3-3.9h6.1v25.6h-4V347.1z"/>
	<path d="M132.7,369c-1.7,0-3.1-1.4-3.1-3.1c0-1.7,1.4-3.1,3.1-3.1c1.7,0,3.1,1.4,3.1,3.1C135.9,367.6,134.5,369,132.7,369z"/>
	<path d="M147.5,369c-5.2,0-8.7-3.8-8.7-8.6c0-2.6,1.2-4.4,2.9-6.6l8.5-10.7h5l-7.2,9.1c0.1,0,0.3,0,0.4,0c4,0,8,3.4,8,8.2
		C156.3,365.3,152.8,369,147.5,369z M147.5,365.2c2.7,0,4.8-2.1,4.8-4.8c0-2.6-2.1-4.8-4.8-4.8c-2.7,0-4.8,2.2-4.8,4.8
		C142.8,363.1,144.8,365.2,147.5,365.2z"/>
	<path d="M159.6,368.7l11.7-21.7h-12.6v-3.9H176v3.4l-12,22.2H159.6z"/>
</g>
<g enable-background="new    ">
	<path d="M139.6,448.6h-5.1l3-3.9h6.1v25.6h-4V448.6z"/>
	<path d="M151.4,470.5c-1.7,0-3.1-1.4-3.1-3.1c0-1.7,1.4-3.1,3.1-3.1c1.7,0,3.1,1.4,3.1,3.1C154.6,469.1,153.2,470.5,151.4,470.5z"
		/>
	<path d="M174.8,470.2h-16.9v-1.4c0-5.6,4.6-8.1,8.4-10.8c2.6-1.9,4.3-3.3,4.3-5.9c0-2.3-1.5-3.9-4.1-3.9c-2.6,0-4.6,1.7-4.6,4.4h-4
		c0-4.9,3.8-8.2,8.6-8.2c4.3,0,8,2.6,8,7.7c0,4.1-1.9,6.3-5.7,9c-2.3,1.7-5.1,3.2-5.8,5.5h11.7V470.2z"/>
</g>
<g enable-background="new    ">
	<path d="M125,675.8c-5.4,0-9.3-4.1-9.3-9.8v-6.7c0-5.8,3.9-9.8,9.3-9.8c5.4,0,9.3,4.1,9.3,9.8v6.7
		C134.3,671.8,130.4,675.8,125,675.8z M125,671.9c3.1,0,5.3-2.2,5.3-5.9v-6.7c0-3.7-2.2-5.9-5.3-5.9c-3.1,0-5.3,2.2-5.3,5.9v6.7
		C119.7,669.7,121.9,671.9,125,671.9z"/>
	<path d="M140.6,675.7c-1.7,0-3.1-1.4-3.1-3.1c0-1.7,1.4-3.1,3.1-3.1c1.7,0,3.1,1.4,3.1,3.1C143.7,674.3,142.3,675.7,140.6,675.7z"
		/>
	<path d="M149.2,653.8H144l3-3.9h6.1v25.6h-4V653.8z"/>
	<path d="M161.5,668.3c0.5,2.1,2.4,3.6,4.8,3.6c2.9,0,4.8-2.1,4.8-4.8c0-2.7-1.9-4.8-4.7-4.8c-2.1,0-3.6,1-4.5,2.6l-3.6-1.1l2.7-14
		h12.2v3.9h-9.1l-1.2,6.1c0.9-0.6,2.3-1.1,4-1.1c4.9,0,8.1,3.7,8.1,8.8c0,4.8-3.6,8.2-8.8,8.2c-4.6,0-8.7-3.3-8.8-7.5H161.5z"/>
</g>
<g enable-background="new    ">
	<path d="M180.8,100.1h14.2v2.5h-11.5v8.3h9.4v2.5h-9.4v9h11.5v2.5h-14.2V100.1z"/>
	<path d="M200.2,100.1h8.1c4.6,0,7.4,2.6,7.4,6.7c0,3.8-2.5,6.3-6.5,6.7l9.8,11.5h-3.5l-9.8-11.6h-2.8v11.6h-2.7V100.1z M208,110.9
		c3.2,0,5-1.4,5-4.2s-1.8-4.2-5-4.2h-5.1v8.4H208z"/>
	<path d="M222.1,100.1h14.2v2.5h-11.5v8.3h9.4v2.5h-9.4v9h11.5v2.5h-14.2V100.1z"/>
</g>
<g enable-background="new    ">
	<path d="M582.6,100.1h14.2v2.5h-11.5v8.3h9.4v2.5h-9.4v9h11.5v2.5h-14.2V100.1z"/>
	<path d="M601.1,107.4h2.5v2.9c1.3-2.3,3.5-3.3,5.7-3.3c3.8,0,6.6,2.6,6.6,6.9v11h-2.5v-10.6c0-3.1-1.8-5-4.4-5
		c-3.1,0-5.5,2.5-5.5,6.9v8.7h-2.5V107.4z"/>
	<path d="M620.2,116.2c0-5.1,3.7-9.1,9.1-9.1c4.6,0,8.2,3.3,8.2,8.9v0.7h-14.8c0,3.6,2.7,6.4,6.5,6.4c2.9,0,4.6-1.2,5.8-3.3l2,1.3
		c-1.5,2.6-4.1,4.3-7.8,4.3C623.7,125.3,620.2,121.2,620.2,116.2z M623,114.4h12c-0.4-3.2-2.8-5.1-5.8-5.1
		C626.3,109.4,623.5,111.3,623,114.4z"/>
	<path d="M642,107.4h2.5v3.6c0.7-2.5,3-3.8,5.1-3.8c0.4,0,0.8,0,1.3,0.1v2.6c-0.5-0.2-0.9-0.2-1.5-0.2c-2.2,0-4.9,2-4.9,6.4v8.8H642
		V107.4z"/>
	<path d="M653.2,128.8l1.9-1.6c1.4,1.9,3.4,3.2,6.3,3.2c3,0,6.2-1.8,6.2-6.4v-2.2c-1.3,1.9-3.7,3.3-6.4,3.3c-5,0-8.6-3.9-8.6-8.9
		s3.7-8.9,8.6-8.9c2.7,0,5.1,1.4,6.4,3.3v-2.9h2.5V124c0,5.7-3.8,8.6-8.6,8.6C657.4,132.6,654.5,130.8,653.2,128.8z M667.8,116
		c0-3.8-2.6-6.7-6.4-6.7c-3.8,0-6.4,2.9-6.4,6.7s2.6,6.7,6.4,6.7C665.3,122.7,667.8,119.8,667.8,116z"/>
	<path d="M677.3,132.3l3.9-8.2l-7.8-16.6h2.7l6.4,13.9l6.4-13.9h2.8l-11.6,24.8H677.3z"/>
	<path d="M701.1,121l2.2-0.9c0.6,1.9,2.6,3,4.6,3c1.9,0,3.4-1,3.4-2.7c0-1.4-0.9-2.3-3.3-3.1l-1.9-0.6c-2.8-0.9-4.2-2.6-4.2-5
		c0-2.9,2.6-4.7,5.8-4.7c2.6,0,4.6,1.1,5.7,3.1l-2,1.2c-0.7-1.1-2-2.1-3.9-2.1c-1.6,0-3.3,0.9-3.3,2.4c0,1.2,0.7,2.2,2.7,2.8l2,0.6
		c3,0.9,4.7,2.5,4.7,5.1c0,3.3-2.5,5.1-5.9,5.1C704.7,125.3,702,123.9,701.1,121z"/>
	<path d="M718.4,107.4h2.5v2.9c1.3-1.9,3.8-3.3,6.5-3.3c5,0,8.7,4.1,8.7,9.1s-3.7,9.1-8.7,9.1c-2.7,0-5.2-1.4-6.5-3.3v10.3h-2.5
		V107.4z M733.6,116.2c0-3.8-2.6-6.8-6.4-6.8s-6.4,3-6.4,6.8s2.6,6.8,6.4,6.8S733.6,120,733.6,116.2z"/>
	<path d="M739.2,116.2c0-5.1,3.7-9.1,9.1-9.1c4.6,0,8.2,3.3,8.2,8.9v0.7h-14.8c0,3.6,2.7,6.4,6.5,6.4c2.9,0,4.6-1.2,5.8-3.3l2,1.3
		c-1.5,2.6-4.1,4.3-7.8,4.3C742.7,125.3,739.2,121.2,739.2,116.2z M742,114.4h12c-0.4-3.2-2.8-5.1-5.8-5.1
		C745.3,109.4,742.5,111.3,742,114.4z"/>
	<path d="M761,107.4h2.5v2.9c1.3-2.3,3.5-3.3,5.7-3.3c3.8,0,6.6,2.6,6.6,6.9v11h-2.5v-10.6c0-3.1-1.8-5-4.4-5
		c-3.1,0-5.5,2.5-5.5,6.9v8.7H761V107.4z"/>
	<path d="M782.6,120.1v-10.3h-3.7v-2.3h3.7v-4.9h2.5v4.9h5.1v2.3h-5.1v10.1c0,2.2,1,3,2.9,3c0.7,0,1.6-0.2,2.2-0.4v2.2
		c-0.7,0.3-1.6,0.5-2.6,0.5C784.8,125.1,782.6,123.5,782.6,120.1z"/>
	<path d="M801.3,116.2c0-5,3.8-9.1,9.1-9.1c3.6,0,6.5,1.9,8,4.6l-2.1,1.2c-1-2.1-3.2-3.5-5.9-3.5c-4,0-6.6,3.1-6.6,6.8
		s2.6,6.8,6.6,6.8c2.7,0,4.8-1.4,5.9-3.5l2.1,1.2c-1.5,2.7-4.4,4.6-8,4.6C805.1,125.3,801.3,121.2,801.3,116.2z"/>
	<path d="M821.1,116.2c0-5,3.8-9.1,9.1-9.1c5.3,0,9.1,4.1,9.1,9.1s-3.8,9.1-9.1,9.1C824.9,125.3,821.1,121.2,821.1,116.2z
		 M836.9,116.2c0-3.7-2.6-6.8-6.6-6.8c-4,0-6.6,3.1-6.6,6.8s2.6,6.8,6.6,6.8C834.2,123,836.9,119.9,836.9,116.2z"/>
	<path d="M843.9,107.4h2.5v2.9c1-2,3-3.3,5.5-3.3c2.7,0,4.6,1.5,5.4,3.9c0.9-2.3,3-3.9,5.8-3.9c3.7,0,6,2.8,6,6.9v11h-2.5v-10.6
		c0-2.9-1.3-5-3.7-5c-3.1,0-5.2,2.7-5.2,6.9v8.7h-2.5v-10.6c0-2.9-1.3-5-3.7-5c-3.1,0-5.2,2.7-5.2,6.9v8.7h-2.5V107.4z"/>
	<path d="M874.8,107.4h2.5v2.9c1.3-1.9,3.8-3.3,6.5-3.3c5,0,8.7,4.1,8.7,9.1s-3.7,9.1-8.7,9.1c-2.7,0-5.2-1.4-6.5-3.3v10.3h-2.5
		V107.4z M889.9,116.2c0-3.8-2.6-6.8-6.4-6.8s-6.4,3-6.4,6.8s2.6,6.8,6.4,6.8S889.9,120,889.9,116.2z"/>
	<path d="M895.6,116.2c0-5,3.7-9.1,8.7-9.1c2.7,0,5.2,1.4,6.5,3.3v-2.9h2.5v17.5h-2.5V122c-1.3,1.9-3.8,3.3-6.5,3.3
		C899.3,125.3,895.6,121.2,895.6,116.2z M911,116.2c0-3.8-2.6-6.8-6.4-6.8s-6.4,3-6.4,6.8s2.6,6.8,6.4,6.8S911,120,911,116.2z"/>
	<path d="M919.2,107.4h2.5v3.6c0.7-2.5,3-3.8,5.1-3.8c0.4,0,0.8,0,1.3,0.1v2.6c-0.5-0.2-0.9-0.2-1.5-0.2c-2.2,0-4.9,2-4.9,6.4v8.8
		h-2.5V107.4z"/>
	<path d="M929.7,116.2c0-5.1,3.7-9.1,9.1-9.1c4.6,0,8.2,3.3,8.2,8.9v0.7h-14.8c0,3.6,2.7,6.4,6.5,6.4c2.9,0,4.6-1.2,5.8-3.3l2,1.3
		c-1.5,2.6-4.1,4.3-7.8,4.3C933.2,125.3,929.7,121.2,929.7,116.2z M932.4,114.4h12c-0.4-3.2-2.8-5.1-5.8-5.1
		C935.7,109.4,933,111.3,932.4,114.4z"/>
	<path d="M950,116.2c0-5,3.7-9.1,8.7-9.1c2.7,0,5.2,1.4,6.5,3.3V98.7h2.5v26.3h-2.5V122c-1.3,1.9-3.8,3.3-6.5,3.3
		C953.7,125.3,950,121.2,950,116.2z M965.4,116.2c0-3.8-2.6-6.8-6.4-6.8s-6.4,3-6.4,6.8s2.6,6.8,6.4,6.8S965.4,120,965.4,116.2z"/>
	<path d="M984.7,122v2.9h-2.5V98.7h2.5v11.7c1.3-1.9,3.8-3.3,6.5-3.3c5,0,8.7,4.1,8.7,9.1s-3.7,9.1-8.7,9.1
		C988.5,125.3,985.9,123.9,984.7,122z M997.3,116.2c0-3.8-2.6-6.8-6.4-6.8s-6.4,3-6.4,6.8s2.6,6.8,6.4,6.8S997.3,120,997.3,116.2z"
		/>
	<path d="M1003,116.2c0-5.1,3.7-9.1,9.1-9.1c4.6,0,8.2,3.3,8.2,8.9v0.7h-14.8c0,3.6,2.7,6.4,6.5,6.4c2.9,0,4.6-1.2,5.8-3.3l2,1.3
		c-1.5,2.6-4.1,4.3-7.8,4.3C1006.5,125.3,1003,121.2,1003,116.2z M1005.7,114.4h12c-0.4-3.2-2.8-5.1-5.8-5.1
		C1009,109.4,1006.3,111.3,1005.7,114.4z"/>
	<path d="M1025.9,120.1v-10.3h-3.7v-2.3h3.7v-4.9h2.5v4.9h5.1v2.3h-5.1v10.1c0,2.2,1,3,2.9,3c0.7,0,1.6-0.2,2.2-0.4v2.2
		c-0.7,0.3-1.6,0.5-2.6,0.5C1028,125.1,1025.9,123.5,1025.9,120.1z"/>
	<path d="M1047.6,111.6l-4.7,13.3h-2l-6-17.5h2.5l4.5,13.3l4.6-13.3h1.9l4.6,13.3l4.5-13.3h2.6l-6,17.5h-2L1047.6,111.6z"/>
	<path d="M1062.3,116.2c0-5.1,3.7-9.1,9.1-9.1c4.6,0,8.2,3.3,8.2,8.9v0.7h-14.8c0,3.6,2.7,6.4,6.5,6.4c2.9,0,4.6-1.2,5.8-3.3l2,1.3
		c-1.5,2.6-4.1,4.3-7.8,4.3C1065.8,125.3,1062.3,121.2,1062.3,116.2z M1065,114.4h12c-0.4-3.2-2.8-5.1-5.8-5.1
		C1068.3,109.4,1065.6,111.3,1065,114.4z"/>
	<path d="M1082.6,116.2c0-5.1,3.7-9.1,9.1-9.1c4.6,0,8.2,3.3,8.2,8.9v0.7h-14.8c0,3.6,2.7,6.4,6.5,6.4c2.9,0,4.6-1.2,5.8-3.3l2,1.3
		c-1.5,2.6-4.1,4.3-7.8,4.3C1086.1,125.3,1082.6,121.2,1082.6,116.2z M1085.4,114.4h12c-0.4-3.2-2.8-5.1-5.8-5.1
		C1088.7,109.4,1086,111.3,1085.4,114.4z"/>
	<path d="M1104.4,107.4h2.5v2.9c1.3-2.3,3.5-3.3,5.7-3.3c3.8,0,6.6,2.6,6.6,6.9v11h-2.5v-10.6c0-3.1-1.8-5-4.4-5
		c-3.1,0-5.5,2.5-5.5,6.9v8.7h-2.5V107.4z"/>
	<path d="M1132.1,116.2c0-5,3.7-9.1,8.7-9.1c2.7,0,5.2,1.4,6.5,3.3V98.7h2.5v26.3h-2.5V122c-1.3,1.9-3.8,3.3-6.5,3.3
		C1135.8,125.3,1132.1,121.2,1132.1,116.2z M1147.5,116.2c0-3.8-2.6-6.8-6.4-6.8s-6.4,3-6.4,6.8s2.6,6.8,6.4,6.8
		S1147.5,120,1147.5,116.2z"/>
	<path d="M1154.2,116.2c0-5,3.7-9.1,8.7-9.1c2.7,0,5.2,1.4,6.5,3.3v-2.9h2.5v17.5h-2.5V122c-1.3,1.9-3.8,3.3-6.5,3.3
		C1158,125.3,1154.2,121.2,1154.2,116.2z M1169.6,116.2c0-3.8-2.6-6.8-6.4-6.8s-6.4,3-6.4,6.8s2.6,6.8,6.4,6.8
		S1169.6,120,1169.6,116.2z"/>
	<path d="M1179.2,120.1v-10.3h-3.7v-2.3h3.7v-4.9h2.5v4.9h5.1v2.3h-5.1v10.1c0,2.2,1,3,2.9,3c0.7,0,1.6-0.2,2.2-0.4v2.2
		c-0.7,0.3-1.6,0.5-2.6,0.5C1181.3,125.1,1179.2,123.5,1179.2,120.1z"/>
	<path d="M1189,116.2c0-5,3.7-9.1,8.7-9.1c2.7,0,5.2,1.4,6.5,3.3v-2.9h2.5v17.5h-2.5V122c-1.3,1.9-3.8,3.3-6.5,3.3
		C1192.8,125.3,1189,121.2,1189,116.2z M1204.4,116.2c0-3.8-2.6-6.8-6.4-6.8s-6.4,3-6.4,6.8s2.6,6.8,6.4,6.8
		S1204.4,120,1204.4,116.2z"/>
	<path d="M1219.8,116.2c0-5,3.8-9.1,9.1-9.1c3.6,0,6.5,1.9,8,4.6l-2.1,1.2c-1-2.1-3.2-3.5-5.9-3.5c-4,0-6.6,3.1-6.6,6.8
		s2.6,6.8,6.6,6.8c2.7,0,4.8-1.4,5.9-3.5l2.1,1.2c-1.5,2.7-4.4,4.6-8,4.6C1223.6,125.3,1219.8,121.2,1219.8,116.2z"/>
	<path d="M1239.7,116.2c0-5.1,3.7-9.1,9.1-9.1c4.5,0,8.2,3.3,8.2,8.9v0.7h-14.8c0,3.6,2.7,6.4,6.5,6.4c2.9,0,4.6-1.2,5.8-3.3l2,1.3
		c-1.5,2.6-4.1,4.3-7.8,4.3C1243.2,125.3,1239.7,121.2,1239.7,116.2z M1242.4,114.4h12c-0.4-3.2-2.8-5.1-5.8-5.1
		C1245.7,109.4,1243,111.3,1242.4,114.4z"/>
	<path d="M1261.5,107.4h2.5v2.9c1.3-2.3,3.5-3.3,5.7-3.3c3.8,0,6.6,2.6,6.6,6.9v11h-2.5v-10.6c0-3.1-1.8-5-4.4-5
		c-3.1,0-5.5,2.5-5.5,6.9v8.7h-2.5V107.4z"/>
	<path d="M1283.1,120.1v-10.3h-3.7v-2.3h3.7v-4.9h2.5v4.9h5.1v2.3h-5.1v10.1c0,2.2,1,3,2.9,3c0.7,0,1.6-0.2,2.2-0.4v2.2
		c-0.7,0.3-1.6,0.5-2.6,0.5C1285.2,125.1,1283.1,123.5,1283.1,120.1z"/>
	<path d="M1292.9,116.2c0-5.1,3.7-9.1,9.1-9.1c4.6,0,8.2,3.3,8.2,8.9v0.7h-14.8c0,3.6,2.7,6.4,6.5,6.4c2.9,0,4.6-1.2,5.8-3.3l2,1.3
		c-1.5,2.6-4.1,4.3-7.8,4.3C1296.4,125.3,1292.9,121.2,1292.9,116.2z M1295.7,114.4h12c-0.4-3.2-2.8-5.1-5.8-5.1
		C1299,109.4,1296.3,111.3,1295.7,114.4z"/>
	<path d="M1314.8,107.4h2.5v3.6c0.7-2.5,3-3.8,5.1-3.8c0.4,0,0.8,0,1.3,0.1v2.6c-0.5-0.2-0.9-0.2-1.5-0.2c-2.2,0-4.9,2-4.9,6.4v8.8
		h-2.5V107.4z"/>
	<path d="M1335.6,120.1v-10.3h-3.7v-2.3h3.7v-4.9h2.5v4.9h5.1v2.3h-5.1v10.1c0,2.2,1,3,2.9,3c0.7,0,1.6-0.2,2.2-0.4v2.2
		c-0.7,0.3-1.6,0.5-2.6,0.5C1337.7,125.1,1335.6,123.5,1335.6,120.1z"/>
	<path d="M1348.4,132.3l3.9-8.2l-7.8-16.6h2.7l6.4,13.9l6.4-13.9h2.8l-11.6,24.8H1348.4z"/>
	<path d="M1366.1,107.4h2.5v2.9c1.3-1.9,3.8-3.3,6.5-3.3c5,0,8.7,4.1,8.7,9.1s-3.7,9.1-8.7,9.1c-2.7,0-5.2-1.4-6.5-3.3v10.3h-2.5
		V107.4z M1381.2,116.2c0-3.8-2.6-6.8-6.4-6.8s-6.4,3-6.4,6.8s2.6,6.8,6.4,6.8S1381.2,120,1381.2,116.2z"/>
	<path d="M1386.9,116.2c0-5.1,3.7-9.1,9.1-9.1c4.5,0,8.2,3.3,8.2,8.9v0.7h-14.8c0,3.6,2.7,6.4,6.5,6.4c2.9,0,4.6-1.2,5.8-3.3l2,1.3
		c-1.5,2.6-4.1,4.3-7.8,4.3C1390.4,125.3,1386.9,121.2,1386.9,116.2z M1389.6,114.4h12c-0.4-3.2-2.8-5.1-5.8-5.1
		C1392.9,109.4,1390.2,111.3,1389.6,114.4z"/>
	<path d="M1407,121l2.2-0.9c0.6,1.9,2.6,3,4.6,3c1.9,0,3.4-1,3.4-2.7c0-1.4-0.9-2.3-3.3-3.1l-1.9-0.6c-2.8-0.9-4.2-2.6-4.2-5
		c0-2.9,2.6-4.7,5.8-4.7c2.6,0,4.6,1.1,5.7,3.1l-2,1.2c-0.7-1.1-2-2.1-3.9-2.1c-1.6,0-3.3,0.9-3.3,2.4c0,1.2,0.7,2.2,2.7,2.8l2,0.6
		c3,0.9,4.7,2.5,4.7,5.1c0,3.3-2.5,5.1-5.9,5.1C1410.6,125.3,1407.9,123.9,1407,121z"/>
</g>
<g enable-background="new    ">
	<path d="M1699.8,594.8h2.4c0.6,2.5,2.8,4.4,5.5,4.4c3.2,0,5.6-2.5,5.6-5.6c0-3.1-2.2-5.6-5.5-5.6c-2.1,0-3.8,1-4.8,2.4l-2.3-0.7
		l2.4-12.6h11.2v2.3h-9.2l-1.4,7.6c1-0.8,2.5-1.4,4.5-1.4c4.5,0,7.7,3.6,7.7,8.3c0,4.1-3.5,7.6-8.1,7.6
		C1703.4,601.5,1699.9,598.3,1699.8,594.8z"/>
	<path d="M1719.3,592.6v-7c0-5.3,3.5-8.9,8.4-8.9c4.9,0,8.4,3.6,8.4,8.9v7c0,5.3-3.5,8.9-8.4,8.9
		C1722.9,601.5,1719.3,597.9,1719.3,592.6z M1733.8,592.6v-7c0-4.1-2.5-6.6-6-6.6c-3.5,0-6,2.5-6,6.6v7c0,4.1,2.5,6.6,6,6.6
		C1731.2,599.2,1733.8,596.7,1733.8,592.6z"/>
	<path d="M1739.4,583.5c0-3.7,3-6.7,6.7-6.7c3.7,0,6.7,3,6.7,6.7c0,3.7-3,6.7-6.7,6.7C1742.4,590.2,1739.4,587.2,1739.4,583.5z
		 M1750.5,583.5c0-2.4-2-4.5-4.4-4.5c-2.4,0-4.4,2-4.4,4.5c0,2.4,2,4.5,4.4,4.5C1748.5,587.9,1750.5,585.9,1750.5,583.5z
		 M1761.5,577.1h2.7l-15.3,24.1h-2.7L1761.5,577.1z M1757.5,594.8c0-3.7,3-6.7,6.7-6.7c3.7,0,6.7,3,6.7,6.7c0,3.7-3,6.7-6.7,6.7
		C1760.5,601.5,1757.5,598.4,1757.5,594.8z M1768.6,594.8c0-2.4-2-4.5-4.4-4.5c-2.4,0-4.4,2-4.4,4.5c0,2.4,2,4.5,4.4,4.5
		C1766.7,599.2,1768.6,597.2,1768.6,594.8z"/>
</g>
<g enable-background="new    ">
	<path d="M1701.5,622.2h2.4v3.5c0.7-2.4,2.9-3.7,4.9-3.7c0.4,0,0.8,0,1.2,0.1v2.5c-0.5-0.2-0.9-0.2-1.4-0.2c-2.1,0-4.7,1.9-4.7,6.3
		v8.5h-2.4V622.2z"/>
	<path d="M1711.6,630.7c0-4.9,3.6-8.8,8.8-8.8c4.4,0,8,3.2,8,8.6v0.6H1714c0,3.5,2.6,6.2,6.3,6.2c2.8,0,4.5-1.2,5.6-3.2l1.9,1.3
		c-1.5,2.5-4,4.1-7.5,4.1C1715,639.5,1711.6,635.6,1711.6,630.7z M1714.2,629h11.7c-0.4-3.1-2.8-4.9-5.6-4.9
		C1717.5,624.1,1714.8,625.9,1714.2,629z"/>
	<path d="M1732.2,628.5h8.3v2.4h-8.3V628.5z"/>
	<path d="M1745.5,632.8v-10.6h2.4v10.3c0,2.9,1.7,4.8,4.1,4.8c2.9,0,5.1-2.6,5.1-6.7v-8.5h2.4v17h-2.4v-2.9
		c-1.2,2.2-3.3,3.2-5.4,3.2C1748.1,639.5,1745.5,636.9,1745.5,632.8z"/>
	<path d="M1763.7,635.4l2.1-0.9c0.6,1.9,2.5,2.9,4.5,2.9c1.8,0,3.3-1,3.3-2.6c0-1.4-0.8-2.2-3.2-3l-1.8-0.6
		c-2.7-0.8-4.1-2.5-4.1-4.8c0-2.9,2.5-4.5,5.7-4.5c2.5,0,4.5,1.1,5.5,3l-1.9,1.2c-0.7-1.1-1.9-2.1-3.7-2.1c-1.6,0-3.2,0.9-3.2,2.3
		c0,1.2,0.6,2.1,2.7,2.8l1.9,0.6c2.9,0.9,4.5,2.4,4.5,4.9c0,3.2-2.4,5-5.7,5C1767.2,639.5,1764.6,638.1,1763.7,635.4z"/>
	<path d="M1779.1,630.7c0-4.9,3.6-8.8,8.8-8.8c4.4,0,8,3.2,8,8.6v0.6h-14.3c0,3.5,2.6,6.2,6.3,6.2c2.8,0,4.5-1.2,5.6-3.2l1.9,1.3
		c-1.5,2.5-4,4.1-7.5,4.1C1782.5,639.5,1779.1,635.6,1779.1,630.7z M1781.8,629h11.7c-0.4-3.1-2.8-4.9-5.6-4.9
		C1785,624.1,1782.3,625.9,1781.8,629z"/>
	<path d="M1798.9,630.7c0-4.9,3.6-8.8,8.5-8.8c2.6,0,5.1,1.4,6.3,3.2v-11.4h2.4v25.5h-2.4v-2.9c-1.2,1.8-3.7,3.2-6.3,3.2
		C1802.5,639.5,1798.9,635.6,1798.9,630.7z M1813.8,630.7c0-3.7-2.5-6.6-6.3-6.6s-6.3,3-6.3,6.6s2.5,6.6,6.3,6.6
		S1813.8,634.4,1813.8,630.7z"/>
</g>
<g enable-background="new    ">
	<path d="M1700,550.7c0-4.9,3.6-8.8,8.5-8.8c2.6,0,5.1,1.4,6.3,3.2v-2.9h2.4v17h-2.4v-2.9c-1.2,1.8-3.7,3.2-6.3,3.2
		C1703.7,559.5,1700,555.6,1700,550.7z M1715,550.7c0-3.7-2.5-6.6-6.3-6.6c-3.7,0-6.3,3-6.3,6.6s2.5,6.6,6.3,6.6
		C1712.4,557.3,1715,554.4,1715,550.7z"/>
	<path d="M1724.3,554.5v-10h-3.6v-2.2h3.6v-4.7h2.4v4.7h5v2.2h-5v9.8c0,2.2,1,2.9,2.8,2.9c0.7,0,1.6-0.2,2.1-0.4v2.1
		c-0.7,0.3-1.6,0.4-2.5,0.4C1726.4,559.4,1724.3,557.8,1724.3,554.5z"/>
	<path d="M1743.8,533.7h2.4v25.5h-2.4V533.7z"/>
	<path d="M1750.7,550.7c0-4.9,3.6-8.8,8.8-8.8c4.4,0,8,3.2,8,8.6v0.6h-14.3c0,3.5,2.6,6.2,6.3,6.2c2.8,0,4.5-1.2,5.6-3.2l1.9,1.3
		c-1.5,2.5-4,4.1-7.5,4.1C1754.1,559.5,1750.7,555.6,1750.7,550.7z M1753.3,549h11.7c-0.4-3.1-2.8-4.9-5.6-4.9
		C1756.5,544.1,1753.9,545.9,1753.3,549z"/>
	<path d="M1770.4,550.7c0-4.9,3.6-8.8,8.5-8.8c2.6,0,5.1,1.4,6.3,3.2v-2.9h2.4v17h-2.4v-2.9c-1.2,1.8-3.7,3.2-6.3,3.2
		C1774.1,559.5,1770.4,555.6,1770.4,550.7z M1785.4,550.7c0-3.7-2.5-6.6-6.3-6.6c-3.7,0-6.3,3-6.3,6.6s2.5,6.6,6.3,6.6
		C1782.8,557.3,1785.4,554.4,1785.4,550.7z"/>
	<path d="M1791.8,555.4l2.1-0.9c0.6,1.9,2.5,2.9,4.5,2.9c1.8,0,3.3-1,3.3-2.6c0-1.4-0.8-2.2-3.2-3l-1.8-0.6
		c-2.7-0.8-4.1-2.5-4.1-4.8c0-2.9,2.5-4.5,5.7-4.5c2.5,0,4.5,1.1,5.5,3l-1.9,1.2c-0.7-1.1-1.9-2.1-3.7-2.1c-1.6,0-3.2,0.9-3.2,2.3
		c0,1.2,0.6,2.1,2.7,2.8l1.9,0.6c2.9,0.9,4.5,2.4,4.5,4.9c0,3.2-2.4,5-5.7,5C1795.3,559.5,1792.6,558.1,1791.8,555.4z"/>
	<path d="M1809.7,554.5v-10h-3.6v-2.2h3.6v-4.7h2.4v4.7h5v2.2h-5v9.8c0,2.2,1,2.9,2.8,2.9c0.7,0,1.6-0.2,2.1-0.4v2.1
		c-0.7,0.3-1.6,0.4-2.5,0.4C1811.8,559.4,1809.7,557.8,1809.7,554.5z"/>
</g>
<polyline id="Path-2-Copy" fill="none" stroke="#000000" stroke-width="3" points="211.3,151.2 211.3,699.2 1777.3,701.2 "/>
<desc>Created with Sketch.</desc>
<g>
	<path fill="#FFFFF2" d="M909.3,479.3h-2.6v-2.4h2.6v-2.1c0-2.8,1.9-4.3,4.3-4.3c0.8,0,1.5,0.1,2,0.3v2.4c-0.4-0.1-0.9-0.2-1.5-0.2
		c-1.4,0-2.1,0.6-2.1,2.1v1.8h3.6v2.4H912v10h-2.7V479.3z"/>
	<path fill="#FFFFF2" d="M923.1,489.6c-3.7,0-6.5-2.9-6.5-6.5c0-3.6,2.8-6.5,6.5-6.5s6.5,2.9,6.5,6.5
		C929.6,486.7,926.8,489.6,923.1,489.6z M923.1,487.1c2.2,0,3.7-1.7,3.7-3.9c0-2.2-1.5-3.9-3.7-3.9c-2.2,0-3.8,1.7-3.8,3.9
		C919.3,485.3,920.9,487.1,923.1,487.1z"/>
	<path fill="#FFFFF2" d="M932.4,476.9h2.7v2.2c0.5-1.4,1.9-2.3,3.3-2.3c0.4,0,0.7,0,1.1,0.1v2.8c-0.5-0.2-0.9-0.2-1.4-0.2
		c-1.6,0-3,1.3-3,3.8v6.1h-2.7V476.9z"/>
	<path fill="#FFFFF2" d="M952.9,489.6c-3.7,0-6.6-2.8-6.6-6.5c0-3.7,2.8-6.5,6.6-6.5c2.6,0,4.7,1.4,5.8,3.4l-2.4,1.3
		c-0.6-1.3-1.8-2.2-3.4-2.2c-2.2,0-3.8,1.7-3.8,3.9c0,2.2,1.6,3.9,3.8,3.9c1.6,0,2.8-0.9,3.4-2.2l2.4,1.3
		C957.6,488.2,955.5,489.6,952.9,489.6z"/>
	<path fill="#FFFFF2" d="M966.9,489.6c-3.7,0-6.5-2.9-6.5-6.5c0-3.6,2.8-6.5,6.5-6.5s6.5,2.9,6.5,6.5
		C973.4,486.7,970.6,489.6,966.9,489.6z M966.9,487.1c2.2,0,3.7-1.7,3.7-3.9c0-2.2-1.5-3.9-3.7-3.9c-2.2,0-3.8,1.7-3.8,3.9
		C963.1,485.3,964.7,487.1,966.9,487.1z"/>
	<path fill="#FFFFF2" d="M981.9,489.6c-3.7,0-6.5-2.9-6.5-6.5c0-3.6,2.8-6.5,6.5-6.5s6.5,2.9,6.5,6.5
		C988.4,486.7,985.6,489.6,981.9,489.6z M981.9,487.1c2.2,0,3.7-1.7,3.7-3.9c0-2.2-1.5-3.9-3.7-3.9c-2.2,0-3.8,1.7-3.8,3.9
		C978.1,485.3,979.7,487.1,981.9,487.1z"/>
	<path fill="#FFFFF2" d="M991.2,470.6h2.7v18.7h-2.7V470.6z"/>
	<path fill="#FFFFF2" d="M999,474.1c-1,0-1.8-0.8-1.8-1.8c0-1,0.8-1.8,1.8-1.8c1,0,1.8,0.8,1.8,1.8
		C1000.9,473.3,1000.1,474.1,999,474.1z M997.7,476.9h2.7v12.5h-2.7V476.9z"/>
	<path fill="#FFFFF2" d="M1004.1,476.9h2.7v1.7c0.8-1.2,2.2-2,3.8-2c2.9,0,4.8,2,4.8,5.2v7.5h-2.7v-7.1c0-2-1-3.2-2.6-3.2
		c-1.8,0-3.2,1.4-3.2,4.1v6.1h-2.7V476.9z"/>
	<path fill="#FFFFF2" d="M1024.3,494.8c-2.4,0-4.6-0.9-5.8-2.3l1.7-2c1,1.2,2.5,1.8,4.1,1.8c2.1,0,3.8-1.4,3.8-3.9v-1.1
		c-0.8,1.1-2.3,1.9-4,1.9c-3.4,0-6-2.8-6-6.3c0-3.5,2.6-6.3,6-6.3c1.7,0,3.2,0.8,4,1.9v-1.7h2.7v11.6
		C1030.8,492.9,1028,494.8,1024.3,494.8z M1024.6,486.8c2.1,0,3.7-1.6,3.7-3.8c0-2.2-1.6-3.8-3.7-3.8c-2.1,0-3.7,1.6-3.7,3.8
		C1020.9,485.2,1022.5,486.8,1024.6,486.8z"/>
</g>
<g>
	<path fill="#828282" d="M1413.4,479.3h-2.6v-2.4h2.6v-2.1c0-2.8,1.9-4.3,4.3-4.3c0.8,0,1.5,0.1,2,0.3v2.4c-0.4-0.1-0.9-0.2-1.5-0.2
		c-1.4,0-2.1,0.6-2.1,2.1v1.8h3.6v2.4h-3.6v10h-2.7V479.3z"/>
	<path fill="#828282" d="M1427.2,489.6c-3.7,0-6.5-2.9-6.5-6.5c0-3.6,2.8-6.5,6.5-6.5s6.5,2.9,6.5,6.5
		C1433.8,486.7,1430.9,489.6,1427.2,489.6z M1427.2,487.1c2.2,0,3.7-1.7,3.7-3.9c0-2.2-1.5-3.9-3.7-3.9c-2.2,0-3.8,1.7-3.8,3.9
		C1423.4,485.3,1425,487.1,1427.2,487.1z"/>
	<path fill="#828282" d="M1436.6,476.9h2.7v2.2c0.5-1.4,1.9-2.3,3.3-2.3c0.4,0,0.7,0,1.1,0.1v2.8c-0.5-0.2-0.9-0.2-1.4-0.2
		c-1.6,0-3,1.3-3,3.8v6.1h-2.7V476.9z"/>
	<path fill="#828282" d="M1457,489.6c-3.7,0-6.6-2.8-6.6-6.5c0-3.7,2.8-6.5,6.6-6.5c2.6,0,4.7,1.4,5.8,3.4l-2.4,1.3
		c-0.6-1.3-1.8-2.2-3.4-2.2c-2.2,0-3.8,1.7-3.8,3.9c0,2.2,1.6,3.9,3.8,3.9c1.6,0,2.8-0.9,3.4-2.2l2.4,1.3
		C1461.8,488.2,1459.6,489.6,1457,489.6z"/>
	<path fill="#828282" d="M1471,489.6c-3.7,0-6.5-2.9-6.5-6.5c0-3.6,2.8-6.5,6.5-6.5s6.5,2.9,6.5,6.5
		C1477.6,486.7,1474.7,489.6,1471,489.6z M1471,487.1c2.2,0,3.7-1.7,3.7-3.9c0-2.2-1.5-3.9-3.7-3.9c-2.2,0-3.8,1.7-3.8,3.9
		C1467.2,485.3,1468.8,487.1,1471,487.1z"/>
	<path fill="#828282" d="M1486,489.6c-3.7,0-6.5-2.9-6.5-6.5c0-3.6,2.8-6.5,6.5-6.5s6.5,2.9,6.5,6.5
		C1492.5,486.7,1489.7,489.6,1486,489.6z M1486,487.1c2.2,0,3.7-1.7,3.7-3.9c0-2.2-1.5-3.9-3.7-3.9c-2.2,0-3.8,1.7-3.8,3.9
		C1482.2,485.3,1483.8,487.1,1486,487.1z"/>
	<path fill="#828282" d="M1495.3,470.6h2.7v18.7h-2.7V470.6z"/>
	<path fill="#828282" d="M1503.1,474.1c-1,0-1.8-0.8-1.8-1.8c0-1,0.8-1.8,1.8-1.8c1,0,1.8,0.8,1.8,1.8
		C1505,473.3,1504.2,474.1,1503.1,474.1z M1501.8,476.9h2.7v12.5h-2.7V476.9z"/>
	<path fill="#828282" d="M1508.2,476.9h2.7v1.7c0.8-1.2,2.2-2,3.8-2c2.9,0,4.8,2,4.8,5.2v7.5h-2.7v-7.1c0-2-1-3.2-2.6-3.2
		c-1.8,0-3.2,1.4-3.2,4.1v6.1h-2.7V476.9z"/>
	<path fill="#828282" d="M1528.4,494.8c-2.4,0-4.6-0.9-5.8-2.3l1.7-2c1,1.2,2.5,1.8,4.1,1.8c2.1,0,3.8-1.4,3.8-3.9v-1.1
		c-0.8,1.1-2.3,1.9-4,1.9c-3.4,0-6-2.8-6-6.3c0-3.5,2.6-6.3,6-6.3c1.7,0,3.2,0.8,4,1.9v-1.7h2.7v11.6
		C1534.9,492.9,1532.1,494.8,1528.4,494.8z M1528.7,486.8c2.1,0,3.7-1.6,3.7-3.8c0-2.2-1.6-3.8-3.7-3.8c-2.1,0-3.7,1.6-3.7,3.8
		C1525,485.2,1526.6,486.8,1528.7,486.8z"/>
</g>
<line fill="none" stroke="#000000" stroke-miterlimit="10" x1="211.2" y1="214.7" x2="191.5" y2="214.7"/>
<line fill="none" stroke="#000000" stroke-miterlimit="10" x1="211" y1="356.7" x2="191.3" y2="356.7"/>
<line fill="none" stroke="#000000" stroke-miterlimit="10" x1="211" y1="458.2" x2="191.3" y2="458.2"/>
<line fill="none" stroke="#000000" stroke-miterlimit="10" x1="211" y1="663.5" x2="191.3" y2="663.5"/>
</svg>
